<svg version="1.1" xmlns="http://www.w3.org/2000/svg" xmlns:xlink="http://www.w3.org/1999/xlink" width="1366" height="561"><defs/><g><g/><g/><g/><g/><g/><g/><g/><g/><g/><g/><g/><g/><g/><g/><g/><g/><g/><g/><g/><g/><g/><g/><g/><g/><g/><g/><g><rect fill="white" stroke="none" x="0" y="0" width="1366" height="561"/></g><g><text fill="black" stroke="none" font-family="sans-serif" font-size="16.5pt" font-style="normal" font-weight="normal" text-decoration="normal" x="498.4149481778983" y="73.50841485" text-anchor="start" dominant-baseline="alphabetic">Client Goodbye (Standard Procedure)</text></g><g><g><path fill="none" stroke="black" paint-order="fill stroke markers" d=" M 37.47713848 99.3997120805 L 334.0965794938333 99.3997120805 L 334.0965794938333 527.463714557 L 37.47713848 527.463714557 L 37.47713848 99.3997120805" stroke-miterlimit="10" stroke-width="1.3612669416666667" stroke-dasharray=""/></g><g><text fill="black" stroke="none" font-family="sans-serif" font-size="11pt" font-style="normal" font-weight="normal" text-decoration="normal" x="137.78685898691666" y="122.2689967005" text-anchor="start" dominant-baseline="alphabetic">Tracker Server</text></g><g><path fill="none" stroke="black" paint-order="fill stroke markers" d=" M 476.7658243966666 132.56017477950002 L 616.5484188576667 132.56017477950002 L 616.5484188576667 527.463714557 L 476.7658243966666 527.463714557 L 476.7658243966666 132.56017477950002" stroke-miterlimit="10" stroke-width="1.3612669416666667" stroke-dasharray=""/></g><g><text fill="black" stroke="none" font-family="sans-serif" font-size="11pt" font-style="normal" font-weight="normal" text-decoration="normal" x="513.1571216271666" y="155.4294593995" text-anchor="start" dominant-baseline="alphabetic">Event Bus</text></g><g><path fill="none" stroke="black" paint-order="fill stroke markers" d=" M 756.2176637604998 132.56017477950002 L 986.0002582215 132.56017477950002 L 986.0002582215 527.463714557 L 756.2176637604998 527.463714557 L 756.2176637604998 132.56017477950002" stroke-miterlimit="10" stroke-width="1.3612669416666667" stroke-dasharray=""/></g><g><text fill="black" stroke="none" font-family="sans-serif" font-size="11pt" font-style="normal" font-weight="normal" text-decoration="normal" x="766.6089609909999" y="155.4294593995" text-anchor="start" dominant-baseline="alphabetic">Disconnecting Registered Client</text></g><g><path fill="none" stroke="black" paint-order="fill stroke markers" d=" M 1023.8892320576665 99.3997120805 L 1320.5086730714997 99.3997120805 L 1320.5086730714997 527.463714557 L 1023.8892320576665 527.463714557 L 1023.8892320576665 99.3997120805" stroke-miterlimit="10" stroke-width="1.3612669416666667" stroke-dasharray=""/></g><g><text fill="black" stroke="none" font-family="sans-serif" font-size="11pt" font-style="normal" font-weight="normal" text-decoration="normal" x="1095.6989525645831" y="122.2689967005" text-anchor="start" dominant-baseline="alphabetic">Other Registered Client</text></g></g><g><path fill="none" stroke="black" paint-order="fill stroke markers" d=" M 99.64474013 215.461331527 L 99.64474013 527.463714557" stroke-miterlimit="10" stroke-width="1.3612669416666667" stroke-dasharray="12.565541,5.445067766666667"/><path fill="none" stroke="black" paint-order="fill stroke markers" d=" M 267.2052822633333 215.461331527 L 267.2052822633333 527.463714557" stroke-miterlimit="10" stroke-width="1.3612669416666667" stroke-dasharray="12.565541,5.445067766666667"/><path fill="none" stroke="black" paint-order="fill stroke markers" d=" M 546.6571216271666 215.461331527 L 546.6571216271666 527.463714557" stroke-miterlimit="10" stroke-width="1.3612669416666667" stroke-dasharray="12.565541,5.445067766666667"/><path fill="none" stroke="black" paint-order="fill stroke markers" d=" M 871.1089609909999 215.461331527 L 871.1089609909999 527.463714557" stroke-miterlimit="10" stroke-width="1.3612669416666667" stroke-dasharray="12.565541,5.445067766666667"/><path fill="none" stroke="black" paint-order="fill stroke markers" d=" M 1090.7805292881665 215.461331527 L 1090.7805292881665 527.463714557" stroke-miterlimit="10" stroke-width="1.3612669416666667" stroke-dasharray="12.565541,5.445067766666667"/><path fill="none" stroke="black" paint-order="fill stroke markers" d=" M 1258.3410714214997 215.461331527 L 1258.3410714214997 527.463714557" stroke-miterlimit="10" stroke-width="1.3612669416666667" stroke-dasharray="12.565541,5.445067766666667"/></g><g><g><path fill="white" stroke="black" paint-order="fill stroke markers" d=" M 75.795343312 183.444333059 L 75.795343312 149.140406129 L 123.494136948 149.140406129 L 123.494136948 183.444333059" stroke-miterlimit="10" stroke-width="2.7769845610000004" stroke-dasharray=""/><path fill="white" stroke="black" paint-order="fill stroke markers" d=" M 123.494136948 147.9479362881 L 123.49294448809631 148.05574683301663 L 123.48936722763025 148.16354659696862 L 123.4834055243249 148.27132480006935 L 123.47505997434558 148.37907066458843 L 123.46433141224038 148.48677341602908 L 123.45122091085653 148.59442228420602 L 123.43572978123328 148.70200650432204 L 123.41785957247066 148.80951531804487 L 123.39761207157466 148.91693797458265 L 123.3749893032785 149.0242637317593 L 123.34999352984013 149.13148185708852 L 123.32262725081611 149.23858162884713 L 123.29289320281153 149.34555233714718 L 123.26079435920637 149.45238328500702 L 123.22633392985827 149.55906378942086 L 123.18951536078146 149.66558318242718 L 123.15034233380214 149.77193081217544 L 123.1088187661904 149.87809604399126 L 123.06494881026835 149.98406826143997 L 123.01873685299506 150.0898368673881 L 122.97018751552773 150.19539128506324 L 122.91930565275966 150.30072095911154 L 122.86609635283472 150.4058153566534 L 122.81056493663856 150.5106639683366 L 122.75271695726653 150.6152563093874 L 122.69255819946835 150.7195819206588 L 122.63009467906969 150.8236303696767 L 122.56533264237049 150.9273912516828 L 122.49827856552051 151.03085419067543 L 122.42893915387153 151.13400884044688 L 122.35732134130691 151.23684488561815 L 122.28343228954827 151.3393520426704 L 122.20727938743917 151.4415200609734 L 122.1288702502064 151.5433387238104 L 122.04821271869831 151.6447978494 L 121.96531485860085 151.74588729191416 L 121.88018495963095 151.84659694249288 L 121.79283153470755 151.94691673025505 L 121.70326331910037 152.0468366233055 L 121.61148926955633 152.14634662973813 L 121.51751856340388 152.2454367986353 L 121.42136059763536 152.3440972210626 L 121.32302498796719 152.4423180310601 L 121.2225215678784 152.5400894066286 L 121.11986038762726 152.63740157071203 L 121.01505171324621 152.73424479217508 L 120.90810602551538 152.83060938677627 L 120.79903401891441 152.92648571813652 L 120.68784660055307 153.0218641987025 L 120.57455488908055 153.1167352907057 L 120.45917021357356 153.21108950711596 L 120.3417041124035 153.30491741259027 L 120.22216833208265 153.39820962441624 L 120.10057482608936 153.49095681345048 L 119.97693575367295 153.58314970505134 L 119.8512634786376 153.67477908000652 L 119.72357056810611 153.76583577545483 L 119.5938697912631 153.85631068580267 L 119.4621741180782 153.94619476363437 L 119.32849671800895 154.03547902061703 L 119.19285095868398 154.12415452839937 L 119.05525040456618 154.2122124195045 L 118.9157088155963 154.29964388821674 L 118.77424014581695 154.38644019146204 L 118.6308585419772 154.47259264968238 L 118.48557834211798 154.55809264770377 L 118.33841407413819 154.64293163559765 L 118.18938045434199 154.7271011295359 L 118.03849238596717 154.8105927126393 L 117.88576495769483 154.89339803581913 L 117.73121344214053 154.97550881861204 L 117.57485329432703 155.05691685000818 L 117.4167001501388 155.13761398927227 L 117.25676982475848 155.2175921667576 L 117.09507831108532 155.29684338471313 L 116.93164177813595 155.37535971808305 L 116.76647656942748 155.45313331529945 L 116.59959920134312 155.53015639906747 L 116.43102636148063 155.60642126714288 L 116.26077490698353 155.68192029310242 L 116.08886186285537 155.75664592710643 L 115.91530442025731 155.8305906966538 L 115.74011993478899 155.90374720732913 L 115.56332592475297 155.9761081435424 L 115.38494006940292 156.04766626926022 L 115.20498020717571 156.1184144287297 L 115.0234643339076 156.1883455471938 L 114.84041060103468 156.257452631599 L 114.65583731377765 156.3257287712944 L 114.46976292931146 156.39316713872296 L 114.28220605491948 156.45976099010412 L 114.09318544613285 156.52550366610825 L 113.90272000485496 156.59038859252254 L 113.71082877747116 156.6544092809084 L 113.51753095294434 156.71755932925032 L 113.32284586089584 156.77983242259614 L 113.12679296967264 156.84122233368842 L 112.92939188440047 156.9017229235872 L 112.73066234502336 156.96132814228383 L 112.53062422432966 157.02003202930624 L 112.32929752596473 157.07782871431453 L 112.12670238243062 157.13471241768846 L 111.92285905307287 157.19067745110505 L 111.71778792205455 157.24571821810758 L 111.51150949631787 157.29982921466524 L 111.30404440353348 157.35300502972345 L 111.0954133900378 157.40524034574506 L 110.88563731875833 157.45652993924193 L 110.67473716712735 157.5068686812975 L 110.46273402498429 157.55625153807952 L 110.2496490924667 157.60467357134343 L 110.03550367789026 157.65212993892627 L 109.82031919561797 157.69861589523083 L 109.60411716391874 157.7441267917002 L 109.38691920281556 157.7886580772827 L 109.16874703192357 157.83220529888683 L 108.94962246827802 157.87476410182677 L 108.7295674241527 157.91633023025764 L 108.50860390486862 157.95689952760128 L 108.28675400659358 157.99646793696175 L 108.06403991413255 158.03503150153108 L 107.84048389870915 158.07258636498494 L 107.61610831573864 158.1091287718683 L 107.39093560259235 158.14465506797092 L 107.16498827635395 158.1791617006928 L 106.93828893156775 158.21264521939938 L 106.71086023797935 158.24510227576673 L 106.48272493826855 158.27652962411628 L 106.25390584577522 158.30692412173934 L 106.02442584221794 158.33628272921152 L 105.79430787540583 158.3646025106965 L 105.5635749569438 158.39188063423975 L 105.33225015993142 158.41811437205163 L 105.10035661665562 158.44330110078025 L 104.86791751627749 158.4674383017737 L 104.63495610251336 158.49052356133203 L 104.40149567131049 158.51255457094848 L 104.16755956851742 158.53352912754045 L 103.93317118754952 158.55344513366978 L 103.69835396704954 158.57230059775247 L 103.46313138854384 158.59009363425778 L 103.22752697409429 158.60682246389692 L 102.99156428394596 158.62248541380086 L 102.75526691417126 158.63708091768765 L 102.51865849431023 158.65060751601908 L 102.2817626850077 158.66306385614655 L 102.04460317564718 158.6744486924465 L 101.80720368198197 158.68476088644474 L 101.56958794376362 158.69399940693043 L 101.33177972236791 158.7021633300593 L 101.09380279841884 158.70925183944578 L 100.85568096941047 158.71526422624487 L 100.61743804732727 158.72019988922287 L 100.37909785626292 158.72405833481764 L 100.1406842300379 158.7268391771878 L 99.90222100981617 158.72854213825144 L 99.66373204172103 158.72916704771387 L 99.42524117445053 158.72871384308468 L 99.18677225689268 158.72718256968392 L 98.9483491357405 158.72457338063768 L 98.70999565310741 158.7208865368627 L 98.47173564414308 158.71612240704027 L 98.23359293464982 158.71028146757942 L 97.99559133870015 158.70336430256918 L 97.75775465625532 158.69537160372033 L 97.52010667078538 158.6863041702961 L 97.28267114689085 158.67616290903226 L 97.04547182792624 158.66494883404647 L 96.80853243362579 158.65266306673692 L 96.57187665773147 158.63930683567006 L 96.33552816562367 158.6248814764579 L 96.09951059195464 158.60938843162432 L 95.86384753828507 158.5928292504609 L 95.62856257072393 158.57520558887197 L 95.39367921757193 158.556519209209 L 95.15922096696862 158.53677198009436 L 94.92521126454369 158.5159658762345 L 94.6916735110724 158.49410297822251 L 94.45863106013543 158.47118547232998 L 94.22610721578373 158.44721565028834 L 93.99412523020793 158.42219590905984 L 93.76270830141327 158.3961287505978 L 93.5318795708998 158.3690167815963 L 93.3016621213482 158.34086271322963 L 93.0720789743116 158.31166936088118 L 92.84315308791336 158.28143964386192 L 92.61490735455136 158.25017658511825 L 92.38736459860873 158.2178833109301 L 92.16054757417145 158.18456305059792 L 91.93447896275293 158.15021913611994 L 91.70918137102595 158.11485500185907 L 91.48467732856193 158.07847418419922 L 91.26098928557802 158.04108032119186 L 91.03813961069211 158.0026771521921 L 90.81615058868599 157.96326851748486 L 90.59504441827687 157.92285835790076 L 90.37484320989753 157.8814507144221 L 90.15556898348532 157.8390497277787 L 89.93724366628014 157.7956596380339 L 89.7198890906318 157.7512847841605 L 89.50352699181668 157.70592960360693 L 89.28817900586442 157.65959863185344 L 89.07386666739414 157.6122965019586 L 88.86061140746108 157.564027944096 L 88.64843455141353 157.51479778508119 L 88.43735731676027 157.464610947889 L 88.2274008110489 157.41347245116143 L 88.01858602975499 157.3613874087054 L 87.81093385418268 157.3083610289819 L 87.60446504937649 157.25439861458457 L 87.39920026204481 157.19950556171 L 87.19516001849537 157.14368735961767 L 86.99236472258245 157.08694959008128 L 86.79083465366666 157.0292979268305 L 86.59058996458695 156.97073813498366 L 86.39165067964537 156.91127607047108 L 86.19403669260461 156.8509176794497 L 85.99776776469871 156.7896689977083 L 85.8028635226569 156.72753615006403 L 85.60934345674097 156.66452534974988 L 85.41722691879625 156.60064289779336 L 85.2265331203164 156.53589518238644 L 85.03728113052242 156.4702886782467 L 84.84948987445551 156.40382994596987 L 84.66317813108485 156.33652563137383 L 84.47836453142948 156.2683824648339 L 84.29506755669536 156.19940726061 L 84.11330553642722 156.12960691616505 L 83.93309664667562 156.05898841147533 L 83.75445890817936 155.98755880833244 L 83.57741018456342 155.91532524963722 L 83.40196818055263 155.8422949586853 L 83.22815044020118 155.76847523844492 L 83.05597434513827 155.69387347082662 L 82.88545711282993 155.61849711594496 L 82.71661579485726 155.54235371137264 L 82.5494672752114 155.46545087138665 L 82.38402826860501 155.38779628620688 L 82.22031531880086 155.30939772122719 L 82.05834479695754 155.23026301623872 L 81.89813289999225 155.150400084646 L 81.73969564896115 155.0698169126757 L 81.58304888745735 154.9885215585778 L 81.42820828002644 154.90652215181996 L 81.27518931060013 154.82382689227458 L 81.12400728094785 154.74044404939866 L 80.97467730914659 154.65638196140702 L 80.82721432806908 154.5716490344384 L 80.68163308389055 154.4862537417149 L 80.53794813461408 154.40020462269462 L 80.39617384861488 154.31351028221772 L 80.25632440320341 154.22617938964606 L 80.11841378320764 154.1382206779961 L 79.98245577957468 154.0496429430657 L 79.84846398799158 153.96045504255454 L 79.71645180752584 153.87066589517835 L 79.58643243928549 153.78028447977704 L 79.45841888509901 153.68931983441684 L 79.33242394621514 153.59778105548648 L 79.20846022202278 153.50567729678758 L 79.08654010879104 153.41301776861923 L 78.96667579842965 153.31981173685705 L 78.84887927726976 153.22606852202654 L 78.7331623248653 153.13179749837107 L 78.6195365128151 153.03700809291445 L 78.50801320360569 152.94170978451822 L 78.39860354947501 152.84591210293382 L 78.29131849129735 152.74962462784956 L 78.18616875748909 152.65285698793272 L 78.083164862936 152.55561885986666 L 77.9823171079417 152.45791996738313 L 77.88363557719765 152.35977008029 L 77.78713013877467 152.26117901349414 L 77.69281044313621 152.16215662602013 L 77.60068592217323 152.06271282002413 L 77.51076578826104 151.96285753980393 L 77.4230590333381 151.8626007708043 L 77.33757442800683 151.76195253861863 L 77.25432052065652 151.66092290798625 L 77.17330563660852 151.55952198178602 L 77.09453787728373 151.45775990002605 L 77.01802511939243 151.35564683882973 L 76.94377501414667 151.2531930094181 L 76.87179498649508 151.15040865708872 L 76.80209223438044 151.04730406019112 L 76.73467372801989 150.94388952909915 L 76.66954620920788 150.84017540517968 L 76.60671619064202 150.7361720597587 L 76.54618995527181 150.63188989308406 L 76.48797355567035 150.52733933328557 L 76.43207281342907 150.42253083533203 L 76.37849331857562 150.31747487998592 L 76.32724042901485 150.21218197275525 L 76.27831926999298 150.106662642843 L 76.23173473358517 150.00092744209417 L 76.18749147820623 149.89498694394075 L 76.14559392814482 149.78885174234432 L 76.10604627312104 149.68253245073655 L 76.06885246786743 149.57603970095798 L 76.03401623173353 149.4693841421949 L 76.00154104831392 149.36257643991428 L 75.97143016509987 149.25562727479732 L 75.94368659315464 149.14854734167145 L 75.91831310681226 149.04134734844072 L 75.89531224340026 148.93403801501512 L 75.87468630298578 148.8266300722386 L 75.85643734814569 148.71913426081588 L 75.84056720376027 148.61156133023857 L 75.82707745683074 148.50392203771008 L 75.81596945632052 148.3962271470699 L 75.80724431302043 148.28848742771746 L 75.80090289943755 148.1807136535348 L 75.7969458497079 148.0729166018096 L 75.79537355953319 147.96510705215718 L 75.79618618614111 147.85729578544266 L 75.79938364826971 147.74949358270285 L 75.8049656261754 147.64171122406825 L 75.81293156166507 147.53395948768485 L 75.8232806581518 147.42624914863651 L 75.83601188073456 147.31859097786736 L 75.8511239563017 147.21099574110482 L 75.86861537365829 147.10347419778284 L 75.88848438367711 146.99603709996617 L 75.91072899947376 146.88869519127508 L 75.93534699660519 146.78145920581096 L 75.9623359132922 146.67433986708303 L 75.9916930506656 146.56734788693586 L 76.02341547303612 146.46049396447833 L 76.05750000818799 146.35378878501362 L 76.09394324769605 146.24724301897078 L 76.13274154726675 146.1408673208376 L 76.17389102710246 146.03467232809527 L 76.21738757228948 145.92866866015453 L 76.26322683320954 145.8228669172939 L 76.31140422597475 145.71727767959945 L 76.36191493288598 145.611911505907 L 76.41475390291464 145.50677893274604 L 76.46991585220775 145.40189047328636 L 76.52739526461633 145.29725661628646 L 76.58718639224708 145.19288782504483 L 76.64928325603704 145.08879453635367 L 76.71367964635157 144.98498715945507 L 76.78036912360531 144.8814760750002 L 76.84934501890612 144.77827163401128 L 76.92060043472193 144.67538415684638 L 76.99412824557056 144.5728239321675 L 77.06992109873218 144.4706012159116 L 77.14797141498464 144.36872623026517 L 77.22827138936135 144.26720916264188 L 77.31081299193181 144.16606016466383 L 77.39558796860453 144.0652893511466 L 77.48258784195248 143.96490679908752 L 77.57180391206084 143.86492254665816 L 77.66322725739694 143.76534659220047 L 77.75684873570245 143.66618889322686 L 77.85265898490752 143.56745936542464 L 77.9506484240671 143.4691678816643 L 78.05080725431893 143.37132427101233 L 78.15312545986343 143.27393831774822 L 78.25759280896533 143.17701976038614 L 78.36419885497678 143.0805782907011 L 78.472932937382 142.9846235527597 L 78.58378418286335 142.88916514195574 L 78.6967415063887 142.79421260405076 L 78.8117936123198 142.69977543421942 L 78.92892899554194 142.60586307610004 L 79.0481359426144 142.5124849208501 L 79.16940253294182 142.41965030620742 L 79.29271663996622 142.327368515556 L 79.41806593237965 142.23564877699806 L 79.54543787535735 142.144500262431 L 79.67481973181116 142.0539320866303 L 79.80619856366323 141.96395330633814 L 79.93956123313987 141.8745729193575 L 80.07489440408527 141.7857998636526 L 80.21218454329511 141.6976430164551 L 80.35141792186988 141.61011119337616 L 80.49258061658776 141.52321314752518 L 80.63565851129688 141.43695756863437 L 80.78063729832704 141.3513530821897 L 80.92750247992032 141.26640824856847 L 81.07623936968096 141.1821315621833 L 81.22683309404394 141.09853145063252 L 81.37926859376232 141.01561627385772 L 81.53353062541314 140.9333943233074 L 81.68960376292179 140.85187382110814 L 81.84747239910459 140.7710629192422 L 82.00712074722946 140.69096969873246 L 82.16853284259466 140.6116021688342 L 82.33169254412513 140.53296826623426 L 82.4965835359867 140.45507585425742 L 82.66318932921759 140.3779327220799 L 82.83149326337731 140.30154658395068 L 83.0014785082127 140.2259250784199 L 83.17312806534093 140.1510757675751 L 83.34642476994932 140.077006136285 L 83.52135129251184 140.00372359145098 L 83.69789014052199 139.93123546126648 L 83.87602366024211 139.8595489944841 L 84.05573403846863 139.7886713596908 L 84.23700330431353 139.71860964459094 L 84.41981333100125 139.6493708552977 L 84.60414583768147 139.5809619156323 L 84.78998239125713 139.51338966643166 L 84.97730440822774 139.44666086486444 L 85.16609315654772 139.38078218375517 L 85.35632975749954 139.3157602109171 L 85.54799518758163 139.25160144849323 L 85.74107028041072 139.18831231230644 L 85.93553572863841 139.12589913121755 L 86.13137208588195 139.06436814649268 L 86.3285597686688 139.00372551117903 L 86.52707905839499 138.94397728948957 L 86.726910103297 138.88512945619672 L 86.92803292043686 138.82718789603473 L 87.13042739770046 138.77015840311134 L 87.33407329580872 138.71404668032835 L 87.53895025034154 138.65885833881123 L 87.74503777377421 138.60459889734818 L 87.95231525752612 138.55127378183812 L 88.16076197402161 138.49888832474815 L 88.37035707876277 138.44744776458035 L 88.58107961241375 138.39695724534783 L 88.7929085028968 138.3474218160605 L 89.0058225674994 138.29884643021995 L 89.21980051499251 138.2512359453243 L 89.43482094775972 138.2045951223824 L 89.6508623639369 138.1589286254376 L 89.86790315956249 138.1142410211016 L 90.08592163073777 138.07053677809762 L 90.30489597579734 138.02782026681345 L 90.52480429748914 137.9860957588647 L 90.74562460516428 137.94536742666736 L 90.96733481697599 137.90563934302074 L 91.18991276208786 137.86691548070004 L 91.41333618289086 137.82919971205928 L 91.63758273722908 137.79249580864388 L 91.86263000063397 137.75680744081356 L 92.08845546856674 137.7221381773754 L 92.31503655866875 137.68849148522685 L 92.54235061301983 137.65587072900905 L 92.770374900404 137.6242791707705 L 92.99908661858248 137.59371996964066 L 93.22846289657407 137.56419618151418 L 93.45848079694214 137.53571075874527 L 93.68911731808832 137.50826654985244 L 93.92034939655268 137.4818662992338 L 94.15215390932008 137.4565126468923 L 94.3845076761324 137.4322081281721 L 94.6173874618066 137.4089551735048 L 94.85076997855816 137.38675610816654 L 95.08463188832992 137.3656131520453 L 95.31894980512577 137.3455284194191 L 95.55370029734928 137.3265039187445 L 95.78885989014688 137.3085415524556 L 96.02440506775524 137.29164311677417 L 96.26031227585288 137.27581030152965 L 96.49655792391559 137.26104468999037 L 96.73311838757544 137.24734775870522 L 96.96997001098319 137.23472087735584 L 97.20708910917386 137.2231653086199 L 97.44445197043525 137.21268220804464 L 97.68203485867903 137.20327262393135 L 97.91981401581437 137.19493749723065 L 98.15776566412367 137.18767766144822 L 98.39586600864044 137.1814938425616 L 98.63409123952862 137.1763866589475 L 98.87241753446362 137.1723566213201 L 99.11082106101459 137.16940413267974 L 99.34927797902753 137.16752948827283 L 99.58776444300935 137.16673287556227 L 99.82625660451238 137.16701437420866 L 100.06473061451923 137.16837395606237 L 100.30316262582762 137.17081148516635 L 100.5415287954351 137.1743267177697 L 100.77980528692338 137.1789193023521 L 101.01796827284183 137.18458877965895 L 101.25599393709035 137.1913345827472 L 101.49385847730088 137.1991560370422 L 101.7315381072176 137.208052360405 L 101.96900905907559 137.2180226632107 L 102.20624758597756 137.22906594843732 L 102.44322996426851 137.24118111176554 L 102.6799324959081 137.25436694168914 L 102.91633151084042 137.2686221196361 L 103.15240336936098 137.2839452201005 L 103.38812446448064 137.30033471078508 L 103.62347122428633 137.3177889527544 L 103.85842011429818 137.33630620059884 L 104.09294763982301 137.35588460260905 L 104.32703034830367 137.37652220096112 L 104.56064483166439 137.3982169319124 L 104.79376772865153 137.42096662600792 L 105.02637572716964 137.4447690082972 L 105.25844556661272 137.46962169856184 L 105.4899540401902 137.49552221155355 L 105.72087799724767 137.52246795724258 L 105.95119434558184 137.55045624107683 L 106.18088005374982 137.57948426425128 L 106.40991215337218 137.60954912398773 L 106.63826774142983 137.64064781382532 L 106.86592398255425 137.67277722392095 L 107.09285811131106 137.7059341413604 L 107.31904743447647 137.74011525047953 L 107.54446933330668 137.77531713319595 L 107.76910126579965 137.8115362693507 L 107.9929207689493 137.84876903706035 L 108.21590546099186 137.88701171307918 L 108.43803304364394 137.92626047317142 L 108.65928130433237 137.9665113924938 L 108.87962811841545 138.00776044598788 L 109.09905145139541 138.05000350878274 L 109.3175293611218 138.0932363566073 L 109.53503999998571 138.13745466621276 L 109.7515616171045 138.18265401580504 L 109.96707256049692 138.22882988548685 L 110.18155127924818 138.2759776577097 L 110.39497632566518 138.32409261773563 L 110.60732635742112 138.37316995410876 L 110.81858013968977 138.42320475913633 L 111.02871654726894 138.47419202937957 L 111.23771456669301 138.5261266661539 L 111.44555329833419 138.57900347603896 L 111.65221195849252 138.63281717139782 L 111.85766988147418 138.68756237090574 L 112.06190652165812 138.74323360008844 L 112.26490145555047 138.7998252918694 L 112.46663438382706 138.85733178712658 L 112.66708513336313 138.91574733525837 L 112.86623365925078 138.97506609475863 L 113.06406004680339 139.03528213380088 L 113.26054451354705 139.09638943083135 L 113.4556674111988 139.1583818751713 L 113.64940922763151 139.22125326762796 L 113.84175058882498 139.28499732111442 L 114.03267226080337 139.3496076612785 L 114.22215515155858 139.41507782714 L 114.41018031295944 139.48140127173693 L 114.5967289426465 139.54857136278005 L 114.78178238591224 139.61658138331626 L 114.96532213756655 139.6854245324002 L 115.1473298437872 139.75509392577428 L 115.32778730395526 139.82558259655724 L 115.50667647247509 139.89688349594076 L 115.68397946057891 139.9689894938943 L 115.85967853811567 140.04189337987816 L 116.03375613532401 140.1155878635645 L 116.20619484458929 140.19006557556636 L 116.37697742218428 140.26531906817462 L 116.54608678999352 140.3413408161027 L 116.7135060372212 140.41812321723916 L 116.87921842208206 140.4956585934079 L 117.04320737347572 140.57393919113588 L 117.20545649264373 140.6529571824286 L 117.36594955480935 140.73270466555275 L 117.5246705108001 140.81317366582647 L 117.68160348865268 140.8943561364168 L 117.83673279520005 140.97624395914434 L 117.99004291764086 141.05882894529506 L 118.14151852509059 141.14210283643916 L 118.29114447011476 141.22605730525692 L 118.43890579024352 141.3106839563714 L 118.58478770946803 141.39597432718804 L 118.7287756397179 141.4819198887408 L 118.8708551823201 141.56851204654518 L 119.01101212943878 141.65574214145755 L 119.14923246549603 141.74360145054112 L 119.28550236857342 141.83208118793817 L 119.41980821179419 141.9211725057487 L 119.55213656468597 142.01086649491518 L 119.6824741945237 142.10115418611346 L 119.81080806765304 142.19202655064962 L 119.93712535079362 142.28347450136295 L 120.0614134123224 142.37548889353457 L 120.18365982353676 142.46806052580197 L 120.30385235989749 142.56118014107906 L 120.42197900225109 142.65483842748188 L 120.53802793803177 142.74902601925987 L 120.65198756244268 142.84373349773236 L 120.76384647961632 142.93895139223036 L 120.8735935037542 143.03467018104382 L 120.98121766024533 143.13088029237363 L 121.0867081867638 143.2275721052888 L 121.19005453434482 143.32473595068862 L 121.2912463684398 143.42236211226952 L 121.39027356994963 143.5204408274967 L 121.48712623623666 143.6189622885804 L 121.581794682115 143.7179166434566 L 121.67426944081896 143.81729399677224 L 121.76454126494971 143.9170844108748 L 121.85260112740008 144.01727790680607 L 121.93844022225719 144.11786446529993 L 122.0220499656831 144.21883402778434 L 122.10342199677314 144.32017649738722 L 122.182548178392 144.42188173994606 L 122.25942059798746 144.52393958502134 L 122.33403156838165 144.62633982691358 L 122.40637362853965 144.72907222568398 L 122.47643954431578 144.83212650817825 L 122.54422230917683 144.93549236905397 L 122.6097151449028 145.03915947181127 L 122.6729115022647 145.14311744982624 L 122.73380506167945 145.24735590738766 L 122.79238973384184 145.3518644207367 L 122.84865966033351 145.45663253910908 L 122.90260921420867 145.56164978578028 L 122.95423300055691 145.66690565911313 L 123.0035258570426 145.77238963360804 L 123.05048285442118 145.87809116095545 L 123.09509929703204 145.98399967109071 L 123.13737072326809 146.09010457325107 L 123.17729290602195 146.1963952570347 L 123.2148618531086 146.30286109346187 L 123.25007380766463 146.40949143603757 L 123.28292524852395 146.51627562181648 L 123.31341289056985 146.62320297246893 L 123.3415336850635 146.73026279534903 L 123.36728481994892 146.83744438456367 L 123.39066372013406 146.94473702204326 L 123.41166804774839 147.05212997861346 L 123.43029570237667 147.15961251506812 L 123.44654482126893 147.26717388324312 L 123.46041377952683 147.3748033270913 L 123.47190119026611 147.48249008375802 L 123.48100590475526 147.59022338465726 L 123.48772701253043 147.69799245654877 L 123.49206384148643 147.80578652261516 L 123.49401595794399 147.9135948035396 M 123.494136948 182.2518632181 L 123.49294448809631 182.35967376301662 L 123.48936722763025 182.4674735269686 L 123.4834055243249 182.57525173006934 L 123.47505997434558 182.68299759458841 L 123.46433141224038 182.79070034602907 L 123.45122091085653 182.898349214206 L 123.43572978123328 183.00593343432203 L 123.41785957247066 183.11344224804486 L 123.39761207157466 183.22086490458264 L 123.3749893032785 183.3281906617593 L 123.34999352984013 183.4354087870885 L 123.32262725081611 183.54250855884712 L 123.29289320281153 183.64947926714717 L 123.26079435920637 183.756310215007 L 123.22633392985827 183.86299071942085 L 123.18951536078146 183.96951011242717 L 123.15034233380214 184.07585774217543 L 123.1088187661904 184.18202297399125 L 123.06494881026835 184.28799519143996 L 123.01873685299506 184.3937637973881 L 122.97018751552773 184.49931821506323 L 122.91930565275966 184.60464788911153 L 122.86609635283472 184.70974228665338 L 122.81056493663856 184.81459089833658 L 122.75271695726653 184.9191832393874 L 122.69255819946835 185.0235088506588 L 122.63009467906969 185.12755729967668 L 122.56533264237049 185.23131818168278 L 122.49827856552051 185.33478112067542 L 122.42893915387153 185.43793577044687 L 122.35732134130691 185.54077181561814 L 122.28343228954827 185.6432789726704 L 122.20727938743917 185.7454469909734 L 122.1288702502064 185.84726565381038 L 122.04821271869831 185.94872477939998 L 121.96531485860085 186.04981422191415 L 121.88018495963095 186.15052387249287 L 121.79283153470755 186.25084366025504 L 121.70326331910037 186.35076355330548 L 121.61148926955633 186.45027355973812 L 121.51751856340388 186.54936372863529 L 121.42136059763536 186.6480241510626 L 121.32302498796719 186.74624496106009 L 121.2225215678784 186.84401633662858 L 121.11986038762726 186.94132850071202 L 121.01505171324621 187.03817172217506 L 120.90810602551538 187.13453631677626 L 120.79903401891441 187.2304126481365 L 120.68784660055307 187.3257911287025 L 120.57455488908055 187.42066222070568 L 120.45917021357356 187.51501643711595 L 120.3417041124035 187.60884434259026 L 120.22216833208265 187.70213655441623 L 120.10057482608936 187.79488374345047 L 119.97693575367295 187.88707663505133 L 119.8512634786376 187.9787060100065 L 119.72357056810611 188.06976270545482 L 119.5938697912631 188.16023761580266 L 119.4621741180782 188.25012169363436 L 119.32849671800895 188.33940595061702 L 119.19285095868398 188.42808145839936 L 119.05525040456618 188.5161393495045 L 118.9157088155963 188.60357081821672 L 118.77424014581695 188.69036712146203 L 118.6308585419772 188.77651957968237 L 118.48557834211798 188.86201957770376 L 118.33841407413819 188.94685856559764 L 118.18938045434199 189.03102805953588 L 118.03849238596717 189.1145196426393 L 117.88576495769483 189.19732496581912 L 117.73121344214053 189.27943574861203 L 117.57485329432703 189.36084378000817 L 117.4167001501388 189.44154091927226 L 117.25676982475848 189.5215190967576 L 117.09507831108532 189.60077031471312 L 116.93164177813595 189.67928664808304 L 116.76647656942748 189.75706024529944 L 116.59959920134312 189.83408332906745 L 116.43102636148063 189.91034819714287 L 116.26077490698353 189.9858472231024 L 116.08886186285537 190.06057285710642 L 115.91530442025731 190.13451762665377 L 115.74011993478899 190.20767413732912 L 115.56332592475297 190.2800350735424 L 115.38494006940292 190.3515931992602 L 115.20498020717571 190.42234135872968 L 115.0234643339076 190.49227247719378 L 114.84041060103468 190.56137956159898 L 114.65583731377765 190.62965570129438 L 114.46976292931146 190.69709406872295 L 114.28220605491948 190.7636879201041 L 114.09318544613285 190.82943059610824 L 113.90272000485496 190.89431552252253 L 113.71082877747116 190.95833621090839 L 113.51753095294434 191.0214862592503 L 113.32284586089584 191.08375935259613 L 113.12679296967264 191.1451492636884 L 112.92939188440047 191.20564985358718 L 112.73066234502336 191.26525507228382 L 112.53062422432966 191.32395895930622 L 112.32929752596473 191.38175564431452 L 112.12670238243062 191.43863934768845 L 111.92285905307287 191.49460438110503 L 111.71778792205455 191.54964514810757 L 111.51150949631787 191.60375614466523 L 111.30404440353348 191.65693195972344 L 111.0954133900378 191.70916727574505 L 110.88563731875833 191.76045686924192 L 110.67473716712735 191.8107956112975 L 110.46273402498429 191.8601784680795 L 110.2496490924667 191.90860050134341 L 110.03550367789026 191.95605686892625 L 109.82031919561797 192.00254282523082 L 109.60411716391874 192.0480537217002 L 109.38691920281556 192.09258500728268 L 109.16874703192357 192.13613222888682 L 108.94962246827802 192.17869103182676 L 108.7295674241527 192.22025716025763 L 108.50860390486862 192.26082645760127 L 108.28675400659358 192.30039486696174 L 108.06403991413255 192.33895843153107 L 107.84048389870915 192.37651329498493 L 107.61610831573864 192.4130557018683 L 107.39093560259235 192.4485819979709 L 107.16498827635395 192.48308863069278 L 106.93828893156775 192.51657214939937 L 106.71086023797935 192.54902920576671 L 106.48272493826855 192.58045655411627 L 106.25390584577522 192.61085105173933 L 106.02442584221794 192.6402096592115 L 105.79430787540583 192.6685294406965 L 105.5635749569438 192.69580756423974 L 105.33225015993142 192.72204130205162 L 105.10035661665562 192.74722803078024 L 104.86791751627749 192.7713652317737 L 104.63495610251336 192.79445049133201 L 104.40149567131049 192.81648150094847 L 104.16755956851742 192.83745605754044 L 103.93317118754952 192.85737206366977 L 103.69835396704954 192.87622752775246 L 103.46313138854384 192.89402056425777 L 103.22752697409429 192.9107493938969 L 102.99156428394596 192.92641234380085 L 102.75526691417126 192.94100784768764 L 102.51865849431023 192.95453444601907 L 102.2817626850077 192.96699078614654 L 102.04460317564718 192.9783756224465 L 101.80720368198197 192.98868781644472 L 101.56958794376362 192.99792633693042 L 101.33177972236791 193.0060902600593 L 101.09380279841884 193.01317876944577 L 100.85568096941047 193.01919115624486 L 100.61743804732727 193.02412681922286 L 100.37909785626292 193.02798526481763 L 100.1406842300379 193.0307661071878 L 99.90222100981617 193.03246906825143 L 99.66373204172103 193.03309397771386 L 99.42524117445053 193.03264077308467 L 99.18677225689268 193.0311094996839 L 98.9483491357405 193.02850031063767 L 98.70999565310741 193.0248134668627 L 98.47173564414308 193.02004933704026 L 98.23359293464982 193.0142083975794 L 97.99559133870015 193.00729123256917 L 97.75775465625532 192.99929853372032 L 97.52010667078538 192.99023110029609 L 97.28267114689085 192.98008983903225 L 97.04547182792624 192.96887576404646 L 96.80853243362579 192.9565899967369 L 96.57187665773147 192.94323376567004 L 96.33552816562367 192.92880840645788 L 96.09951059195464 192.9133153616243 L 95.86384753828507 192.8967561804609 L 95.62856257072393 192.87913251887196 L 95.39367921757193 192.860446139209 L 95.15922096696862 192.84069891009435 L 94.92521126454369 192.8198928062345 L 94.6916735110724 192.7980299082225 L 94.45863106013543 192.77511240232997 L 94.22610721578373 192.75114258028833 L 93.99412523020793 192.72612283905983 L 93.76270830141327 192.70005568059779 L 93.5318795708998 192.67294371159628 L 93.3016621213482 192.64478964322961 L 93.0720789743116 192.61559629088117 L 92.84315308791336 192.5853665738619 L 92.61490735455136 192.55410351511824 L 92.38736459860873 192.52181024093008 L 92.16054757417145 192.4884899805979 L 91.93447896275293 192.45414606611993 L 91.70918137102595 192.41878193185906 L 91.48467732856193 192.3824011141992 L 91.26098928557802 192.34500725119184 L 91.03813961069211 192.30660408219208 L 90.81615058868599 192.26719544748485 L 90.59504441827687 192.22678528790075 L 90.37484320989753 192.1853776444221 L 90.15556898348532 192.1429766577787 L 89.93724366628014 192.09958656803389 L 89.7198890906318 192.0552117141605 L 89.50352699181668 192.00985653360692 L 89.28817900586442 191.96352556185343 L 89.07386666739414 191.9162234319586 L 88.86061140746108 191.867954874096 L 88.64843455141353 191.81872471508117 L 88.43735731676027 191.768537877889 L 88.2274008110489 191.7173993811614 L 88.01858602975499 191.6653143387054 L 87.81093385418268 191.61228795898188 L 87.60446504937649 191.55832554458456 L 87.39920026204481 191.50343249171 L 87.19516001849537 191.44761428961766 L 86.99236472258245 191.39087652008126 L 86.79083465366666 191.3332248568305 L 86.59058996458695 191.27466506498365 L 86.39165067964537 191.21520300047106 L 86.19403669260461 191.1548446094497 L 85.99776776469871 191.0935959277083 L 85.8028635226569 191.03146308006401 L 85.60934345674097 190.96845227974987 L 85.41722691879625 190.90456982779335 L 85.2265331203164 190.83982211238643 L 85.03728113052242 190.7742156082467 L 84.84948987445551 190.70775687596986 L 84.66317813108485 190.64045256137382 L 84.47836453142948 190.5723093948339 L 84.29506755669536 190.50333419061 L 84.11330553642722 190.43353384616503 L 83.93309664667562 190.36291534147531 L 83.75445890817936 190.29148573833243 L 83.57741018456342 190.2192521796372 L 83.40196818055263 190.1462218886853 L 83.22815044020118 190.0724021684449 L 83.05597434513827 189.9978004008266 L 82.88545711282993 189.92242404594495 L 82.71661579485726 189.84628064137263 L 82.5494672752114 189.76937780138664 L 82.38402826860501 189.69172321620687 L 82.22031531880086 189.61332465122717 L 82.05834479695754 189.5341899462387 L 81.89813289999225 189.454327014646 L 81.73969564896115 189.37374384267568 L 81.58304888745735 189.29244848857778 L 81.42820828002644 189.21044908181995 L 81.27518931060013 189.12775382227457 L 81.12400728094785 189.04437097939865 L 80.97467730914659 188.960308891407 L 80.82721432806908 188.87557596443838 L 80.68163308389055 188.7901806717149 L 80.53794813461408 188.7041315526946 L 80.39617384861488 188.6174372122177 L 80.25632440320341 188.53010631964605 L 80.11841378320764 188.44214760799608 L 79.98245577957468 188.35356987306568 L 79.84846398799158 188.26438197255453 L 79.71645180752584 188.17459282517834 L 79.58643243928549 188.08421140977703 L 79.45841888509901 187.99324676441682 L 79.33242394621514 187.90170798548647 L 79.20846022202278 187.80960422678757 L 79.08654010879104 187.71694469861922 L 78.96667579842965 187.62373866685704 L 78.84887927726976 187.52999545202653 L 78.7331623248653 187.43572442837106 L 78.6195365128151 187.34093502291444 L 78.50801320360569 187.2456367145182 L 78.39860354947501 187.1498390329338 L 78.29131849129735 187.05355155784954 L 78.18616875748909 186.9567839179327 L 78.083164862936 186.85954578986664 L 77.9823171079417 186.76184689738312 L 77.88363557719765 186.66369701028998 L 77.78713013877467 186.56510594349413 L 77.69281044313621 186.46608355602012 L 77.60068592217323 186.36663975002412 L 77.51076578826104 186.26678446980392 L 77.4230590333381 186.1665277008043 L 77.33757442800683 186.06587946861862 L 77.25432052065652 185.96484983798624 L 77.17330563660852 185.863448911786 L 77.09453787728373 185.76168683002604 L 77.01802511939243 185.65957376882972 L 76.94377501414667 185.5571199394181 L 76.87179498649508 185.4543355870887 L 76.80209223438044 185.3512309901911 L 76.73467372801989 185.24781645909914 L 76.66954620920788 185.14410233517967 L 76.60671619064202 185.0400989897587 L 76.54618995527181 184.93581682308405 L 76.48797355567035 184.83126626328556 L 76.43207281342907 184.72645776533201 L 76.37849331857562 184.6214018099859 L 76.32724042901485 184.51610890275524 L 76.27831926999298 184.41058957284298 L 76.23173473358517 184.30485437209416 L 76.18749147820623 184.19891387394074 L 76.14559392814482 184.0927786723443 L 76.10604627312104 183.98645938073653 L 76.06885246786743 183.87996663095797 L 76.03401623173353 183.7733110721949 L 76.00154104831392 183.66650336991427 L 75.97143016509987 183.5595542047973 L 75.94368659315464 183.45247427167143 L 75.91831310681226 183.3452742784407 L 75.89531224340026 183.2379649450151 L 75.87468630298578 183.1305570022386 L 75.85643734814569 183.02306119081587 L 75.84056720376027 182.91548826023856 L 75.82707745683074 182.80784896771007 L 75.81596945632052 182.7001540770699 L 75.80724431302043 182.59241435771744 L 75.80090289943755 182.4846405835348 L 75.7969458497079 182.37684353180958 L 75.79537355953319 182.26903398215717" stroke-miterlimit="10" stroke-width="2.7769845610000004" stroke-dasharray=""/></g><g><text fill="black" stroke="none" font-family="sans-serif" font-size="11pt" font-style="normal" font-weight="normal" text-decoration="normal" x="45.64474013" y="210.560770537" text-anchor="start" dominant-baseline="alphabetic">Distribution View</text></g><path fill="none" stroke="none"/><g><path fill="white" stroke="black" paint-order="fill stroke markers" d=" M 208.48158668283327 171.51963465 L 325.9289778438333 171.51963465 L 325.9289778438333 215.461331527 L 208.48158668283327 215.461331527 L 208.48158668283327 171.51963465 Z" stroke-miterlimit="10" stroke-width="2.613632528" stroke-dasharray=""/></g><g><text fill="black" stroke="none" font-family="sans-serif" font-size="11pt" font-style="normal" font-weight="normal" text-decoration="normal" x="226.2052822633333" y="199.126128227" text-anchor="start" dominant-baseline="alphabetic">MQTT Client</text></g><path fill="none" stroke="none"/><g><path fill="white" stroke="black" paint-order="fill stroke markers" d=" M 484.93342604666657 171.51963465 L 608.3808172076666 171.51963465 L 608.3808172076666 215.461331527 L 484.93342604666657 215.461331527 L 484.93342604666657 171.51963465 Z" stroke-miterlimit="10" stroke-width="2.613632528" stroke-dasharray=""/></g><g><text fill="black" stroke="none" font-family="sans-serif" font-size="11pt" font-style="normal" font-weight="normal" text-decoration="normal" x="502.6571216271666" y="199.126128227" text-anchor="start" dominant-baseline="alphabetic">MQTT Broker</text></g><path fill="none" stroke="none"/><g><path fill="white" stroke="black" paint-order="fill stroke markers" d=" M 764.3852654104999 171.51963465 L 977.8326565714999 171.51963465 L 977.8326565714999 215.461331527 L 764.3852654104999 215.461331527 L 764.3852654104999 171.51963465 Z" stroke-miterlimit="10" stroke-width="2.613632528" stroke-dasharray=""/></g><g><text fill="black" stroke="none" font-family="sans-serif" font-size="11pt" font-style="normal" font-weight="normal" text-decoration="normal" x="782.1089609909999" y="199.126128227" text-anchor="start" dominant-baseline="alphabetic">            MQTT Client            </text></g><path fill="none" stroke="none"/><g><path fill="white" stroke="black" paint-order="fill stroke markers" d=" M 1032.0568337076666 171.51963465 L 1149.5042248686666 171.51963465 L 1149.5042248686666 215.461331527 L 1032.0568337076666 215.461331527 L 1032.0568337076666 171.51963465 Z" stroke-miterlimit="10" stroke-width="2.613632528" stroke-dasharray=""/></g><g><text fill="black" stroke="none" font-family="sans-serif" font-size="11pt" font-style="normal" font-weight="normal" text-decoration="normal" x="1049.7805292881665" y="199.126128227" text-anchor="start" dominant-baseline="alphabetic">MQTT Client</text></g><g><path fill="white" stroke="black" paint-order="fill stroke markers" d=" M 1234.4916746034996 183.444333059 L 1234.4916746034996 149.140406129 L 1282.1904682394998 149.140406129 L 1282.1904682394998 183.444333059" stroke-miterlimit="10" stroke-width="2.7769845610000004" stroke-dasharray=""/><path fill="white" stroke="black" paint-order="fill stroke markers" d=" M 1282.1904682394998 147.9479362881 L 1282.189275779596 148.05574683301663 L 1282.18569851913 148.16354659696862 L 1282.1797368158245 148.27132480006935 L 1282.1713912658454 148.37907066458843 L 1282.1606627037402 148.48677341602908 L 1282.1475522023563 148.59442228420602 L 1282.132061072733 148.70200650432204 L 1282.1141908639704 148.80951531804487 L 1282.0939433630745 148.91693797458265 L 1282.0713205947782 149.0242637317593 L 1282.0463248213398 149.13148185708852 L 1282.0189585423159 149.23858162884713 L 1281.9892244943112 149.34555233714718 L 1281.957125650706 149.45238328500702 L 1281.9226652213579 149.55906378942086 L 1281.885846652281 149.66558318242718 L 1281.846673625302 149.77193081217544 L 1281.80515005769 149.87809604399126 L 1281.761280101768 149.98406826143997 L 1281.7150681444948 150.0898368673881 L 1281.6665188070274 150.19539128506324 L 1281.6156369442594 150.30072095911154 L 1281.5624276443343 150.4058153566534 L 1281.5068962281382 150.5106639683366 L 1281.4490482487663 150.6152563093874 L 1281.388889490968 150.7195819206588 L 1281.3264259705693 150.8236303696767 L 1281.2616639338703 150.9273912516828 L 1281.1946098570202 151.03085419067543 L 1281.1252704453711 151.13400884044688 L 1281.0536526328067 151.23684488561815 L 1280.979763581048 151.3393520426704 L 1280.9036106789388 151.4415200609734 L 1280.825201541706 151.5433387238104 L 1280.744544010198 151.6447978494 L 1280.6616461501005 151.74588729191416 L 1280.5765162511307 151.84659694249288 L 1280.4891628262073 151.94691673025505 L 1280.3995946106002 152.0468366233055 L 1280.307820561056 152.14634662973813 L 1280.2138498549036 152.2454367986353 L 1280.1176918891351 152.3440972210626 L 1280.0193562794668 152.4423180310601 L 1279.9188528593781 152.5400894066286 L 1279.8161916791269 152.63740157071203 L 1279.7113830047458 152.73424479217508 L 1279.604437317015 152.83060938677627 L 1279.4953653104142 152.92648571813652 L 1279.3841778920528 153.0218641987025 L 1279.2708861805802 153.1167352907057 L 1279.1555015050733 153.21108950711596 L 1279.0380354039032 153.30491741259027 L 1278.9184996235824 153.39820962441624 L 1278.796906117589 153.49095681345048 L 1278.6732670451727 153.58314970505134 L 1278.5475947701373 153.67477908000652 L 1278.4199018596057 153.76583577545483 L 1278.290201082763 153.85631068580267 L 1278.1585054095779 153.94619476363437 L 1278.0248280095086 154.03547902061703 L 1277.8891822501837 154.12415452839937 L 1277.7515816960658 154.2122124195045 L 1277.612040107096 154.29964388821674 L 1277.4705714373167 154.38644019146204 L 1277.327189833477 154.47259264968238 L 1277.1819096336176 154.55809264770377 L 1277.034745365638 154.64293163559765 L 1276.8857117458417 154.7271011295359 L 1276.734823677467 154.8105927126393 L 1276.5820962491946 154.89339803581913 L 1276.4275447336402 154.97550881861204 L 1276.2711845858266 155.05691685000818 L 1276.1130314416384 155.13761398927227 L 1275.9531011162583 155.2175921667576 L 1275.791409602585 155.29684338471313 L 1275.6279730696356 155.37535971808305 L 1275.4628078609271 155.45313331529945 L 1275.295930492843 155.53015639906747 L 1275.1273576529804 155.60642126714288 L 1274.9571061984832 155.68192029310242 L 1274.785193154355 155.75664592710643 L 1274.6116357117571 155.8305906966538 L 1274.4364512262887 155.90374720732913 L 1274.2596572162527 155.9761081435424 L 1274.0812713609025 156.04766626926022 L 1273.9013114986753 156.1184144287297 L 1273.7197956254072 156.1883455471938 L 1273.5367418925343 156.257452631599 L 1273.3521686052773 156.3257287712944 L 1273.1660942208111 156.39316713872296 L 1272.9785373464192 156.45976099010412 L 1272.7895167376325 156.52550366610825 L 1272.5990512963547 156.59038859252254 L 1272.4071600689708 156.6544092809084 L 1272.213862244444 156.71755932925032 L 1272.0191771523955 156.77983242259614 L 1271.8231242611723 156.84122233368842 L 1271.6257231759002 156.9017229235872 L 1271.426993636523 156.96132814228383 L 1271.2269555158293 157.02003202930624 L 1271.0256288174644 157.07782871431453 L 1270.8230336739302 157.13471241768846 L 1270.6191903445726 157.19067745110505 L 1270.4141192135542 157.24571821810758 L 1270.2078407878175 157.29982921466524 L 1270.0003756950332 157.35300502972345 L 1269.7917446815375 157.40524034574506 L 1269.581968610258 157.45652993924193 L 1269.371068458627 157.5068686812975 L 1269.159065316484 157.55625153807952 L 1268.9459803839663 157.60467357134343 L 1268.7318349693899 157.65212993892627 L 1268.5166504871177 157.69861589523083 L 1268.3004484554185 157.7441267917002 L 1268.0832504943153 157.7886580772827 L 1267.8650783234232 157.83220529888683 L 1267.6459537597777 157.87476410182677 L 1267.4258987156525 157.91633023025764 L 1267.2049351963683 157.95689952760128 L 1266.9830852980933 157.99646793696175 L 1266.7603712056323 158.03503150153108 L 1266.536815190209 158.07258636498494 L 1266.3124396072383 158.1091287718683 L 1266.087266894092 158.14465506797092 L 1265.8613195678536 158.1791617006928 L 1265.6346202230675 158.21264521939938 L 1265.407191529479 158.24510227576673 L 1265.1790562297683 158.27652962411628 L 1264.9502371372748 158.30692412173934 L 1264.7207571337176 158.33628272921152 L 1264.4906391669056 158.3646025106965 L 1264.2599062484435 158.39188063423975 L 1264.0285814514311 158.41811437205163 L 1263.7966879081553 158.44330110078025 L 1263.5642488077772 158.4674383017737 L 1263.331287394013 158.49052356133203 L 1263.0978269628101 158.51255457094848 L 1262.8638908600171 158.53352912754045 L 1262.6295024790493 158.55344513366978 L 1262.3946852585493 158.57230059775247 L 1262.1594626800436 158.59009363425778 L 1261.923858265594 158.60682246389692 L 1261.6878955754457 158.62248541380086 L 1261.451598205671 158.63708091768765 L 1261.2149897858098 158.65060751601908 L 1260.9780939765074 158.66306385614655 L 1260.7409344671469 158.6744486924465 L 1260.5035349734817 158.68476088644474 L 1260.2659192352633 158.69399940693043 L 1260.0281110138676 158.7021633300593 L 1259.7901340899186 158.70925183944578 L 1259.5520122609103 158.71526422624487 L 1259.313769338827 158.72019988922287 L 1259.0754291477626 158.72405833481764 L 1258.8370155215375 158.7268391771878 L 1258.598552301316 158.72854213825144 L 1258.3600633332208 158.72916704771387 L 1258.1215724659503 158.72871384308468 L 1257.8831035483925 158.72718256968392 L 1257.6446804272402 158.72457338063768 L 1257.4063269446071 158.7208865368627 L 1257.1680669356429 158.71612240704027 L 1256.9299242261495 158.71028146757942 L 1256.6919226301998 158.70336430256918 L 1256.454085947755 158.69537160372033 L 1256.216437962285 158.6863041702961 L 1255.9790024383906 158.67616290903226 L 1255.7418031194259 158.66494883404647 L 1255.5048637251255 158.65266306673692 L 1255.268207949231 158.63930683567006 L 1255.0318594571233 158.6248814764579 L 1254.7958418834544 158.60938843162432 L 1254.5601788297847 158.5928292504609 L 1254.3248938622237 158.57520558887197 L 1254.0900105090716 158.556519209209 L 1253.8555522584684 158.53677198009436 L 1253.6215425560433 158.5159658762345 L 1253.3880048025721 158.49410297822251 L 1253.154962351635 158.47118547232998 L 1252.9224385072835 158.44721565028834 L 1252.6904565217076 158.42219590905984 L 1252.4590395929129 158.3961287505978 L 1252.2282108623995 158.3690167815963 L 1251.9979934128478 158.34086271322963 L 1251.7684102658113 158.31166936088118 L 1251.5394843794131 158.28143964386192 L 1251.3112386460512 158.25017658511825 L 1251.0836958901084 158.2178833109301 L 1250.8568788656712 158.18456305059792 L 1250.6308102542525 158.15021913611994 L 1250.4055126625256 158.11485500185907 L 1250.1810086200617 158.07847418419922 L 1249.9573205770778 158.04108032119186 L 1249.7344709021918 158.0026771521921 L 1249.5124818801858 157.96326851748486 L 1249.2913757097765 157.92285835790076 L 1249.0711745013973 157.8814507144221 L 1248.851900274985 157.8390497277787 L 1248.6335749577797 157.7956596380339 L 1248.4162203821315 157.7512847841605 L 1248.1998582833164 157.70592960360693 L 1247.984510297364 157.65959863185344 L 1247.7701979588937 157.6122965019586 L 1247.5569426989607 157.564027944096 L 1247.3447658429131 157.51479778508119 L 1247.13368860826 157.464610947889 L 1246.9237321025487 157.41347245116143 L 1246.7149173212547 157.3613874087054 L 1246.5072651456824 157.3083610289819 L 1246.300796340876 157.25439861458457 L 1246.0955315535446 157.19950556171 L 1245.891491309995 157.14368735961767 L 1245.688696014082 157.08694959008128 L 1245.4871659451665 157.0292979268305 L 1245.2869212560865 156.97073813498366 L 1245.0879819711452 156.91127607047108 L 1244.8903679841044 156.8509176794497 L 1244.6940990561984 156.7896689977083 L 1244.4991948141567 156.72753615006403 L 1244.3056747482406 156.66452534974988 L 1244.1135582102959 156.60064289779336 L 1243.9228644118161 156.53589518238644 L 1243.7336124220221 156.4702886782467 L 1243.5458211659552 156.40382994596987 L 1243.3595094225846 156.33652563137383 L 1243.1746958229292 156.2683824648339 L 1242.991398848195 156.19940726061 L 1242.8096368279269 156.12960691616505 L 1242.6294279381752 156.05898841147533 L 1242.450790199679 155.98755880833244 L 1242.2737414760632 155.91532524963722 L 1242.0982994720523 155.8422949586853 L 1241.9244817317008 155.76847523844492 L 1241.7523056366379 155.69387347082662 L 1241.5817884043297 155.61849711594496 L 1241.412947086357 155.54235371137264 L 1241.245798566711 155.46545087138665 L 1241.0803595601046 155.38779628620688 L 1240.9166466103006 155.30939772122719 L 1240.7546760884572 155.23026301623872 L 1240.5944641914919 155.150400084646 L 1240.4360269404608 155.0698169126757 L 1240.2793801789571 154.9885215585778 L 1240.1245395715262 154.90652215181996 L 1239.9715206020999 154.82382689227458 L 1239.8203385724476 154.74044404939866 L 1239.6710086006462 154.65638196140702 L 1239.5235456195687 154.5716490344384 L 1239.3779643753903 154.4862537417149 L 1239.2342794261137 154.40020462269462 L 1239.0925051401146 154.31351028221772 L 1238.952655694703 154.22617938964606 L 1238.8147450747074 154.1382206779961 L 1238.6787870710743 154.0496429430657 L 1238.5447952794914 153.96045504255454 L 1238.4127830990255 153.87066589517835 L 1238.2827637307853 153.78028447977704 L 1238.1547501765988 153.68931983441684 L 1238.028755237715 153.59778105548648 L 1237.9047915135225 153.50567729678758 L 1237.7828714002908 153.41301776861923 L 1237.6630070899294 153.31981173685705 L 1237.5452105687693 153.22606852202654 L 1237.4294936163649 153.13179749837107 L 1237.3158678043148 153.03700809291445 L 1237.2043444951053 152.94170978451822 L 1237.0949348409747 152.84591210293382 L 1236.987649782797 152.74962462784956 L 1236.8825000489887 152.65285698793272 L 1236.7794961544357 152.55561885986666 L 1236.6786483994415 152.45791996738313 L 1236.5799668686973 152.35977008029 L 1236.4834614302745 152.26117901349414 L 1236.3891417346358 152.16215662602013 L 1236.297017213673 152.06271282002413 L 1236.2070970797608 151.96285753980393 L 1236.1193903248377 151.8626007708043 L 1236.0339057195065 151.76195253861863 L 1235.9506518121561 151.66092290798625 L 1235.8696369281083 151.55952198178602 L 1235.7908691687835 151.45775990002605 L 1235.7143564108922 151.35564683882973 L 1235.6401063056464 151.2531930094181 L 1235.5681262779947 151.15040865708872 L 1235.49842352588 151.04730406019112 L 1235.4310050195195 150.94388952909915 L 1235.3658775007075 150.84017540517968 L 1235.3030474821417 150.7361720597587 L 1235.2425212467715 150.63188989308406 L 1235.18430484717 150.52733933328557 L 1235.1284041049287 150.42253083533203 L 1235.0748246100752 150.31747487998592 L 1235.0235717205146 150.21218197275525 L 1234.9746505614926 150.106662642843 L 1234.928066025085 150.00092744209417 L 1234.8838227697058 149.89498694394075 L 1234.8419252196445 149.78885174234432 L 1234.8023775646207 149.68253245073655 L 1234.7651837593671 149.57603970095798 L 1234.7303475232331 149.4693841421949 L 1234.6978723398136 149.36257643991428 L 1234.6677614565995 149.25562727479732 L 1234.6400178846543 149.14854734167145 L 1234.6146443983118 149.04134734844072 L 1234.5916435349 148.93403801501512 L 1234.5710175944855 148.8266300722386 L 1234.5527686396454 148.71913426081588 L 1234.53689849526 148.61156133023857 L 1234.5234087483304 148.50392203771008 L 1234.5123007478203 148.3962271470699 L 1234.5035756045202 148.28848742771746 L 1234.4972341909372 148.1807136535348 L 1234.4932771412075 148.0729166018096 L 1234.4917048510329 147.96510705215718 L 1234.4925174776408 147.85729578544266 L 1234.4957149397694 147.74949358270285 L 1234.501296917675 147.64171122406825 L 1234.5092628531647 147.53395948768485 L 1234.5196119496516 147.42624914863651 L 1234.5323431722343 147.31859097786736 L 1234.5474552478015 147.21099574110482 L 1234.564946665158 147.10347419778284 L 1234.5848156751767 146.99603709996617 L 1234.6070602909735 146.88869519127508 L 1234.631678288105 146.78145920581096 L 1234.658667204792 146.67433986708303 L 1234.6880243421654 146.56734788693586 L 1234.7197467645358 146.46049396447833 L 1234.7538312996876 146.35378878501362 L 1234.7902745391957 146.24724301897078 L 1234.8290728387665 146.1408673208376 L 1234.8702223186021 146.03467232809527 L 1234.9137188637892 145.92866866015453 L 1234.9595581247092 145.8228669172939 L 1235.0077355174744 145.71727767959945 L 1235.0582462243856 145.611911505907 L 1235.1110851944143 145.50677893274604 L 1235.1662471437073 145.40189047328636 L 1235.223726556116 145.29725661628646 L 1235.2835176837468 145.19288782504483 L 1235.3456145475368 145.08879453635367 L 1235.4100109378512 144.98498715945507 L 1235.476700415105 144.8814760750002 L 1235.5456763104057 144.77827163401128 L 1235.6169317262215 144.67538415684638 L 1235.6904595370702 144.5728239321675 L 1235.7662523902318 144.4706012159116 L 1235.8443027064843 144.36872623026517 L 1235.924602680861 144.26720916264188 L 1236.0071442834314 144.16606016466383 L 1236.0919192601043 144.0652893511466 L 1236.1789191334522 143.96490679908752 L 1236.2681352035606 143.86492254665816 L 1236.3595585488965 143.76534659220047 L 1236.453180027202 143.66618889322686 L 1236.5489902764073 143.56745936542464 L 1236.6469797155669 143.4691678816643 L 1236.7471385458186 143.37132427101233 L 1236.849456751363 143.27393831774822 L 1236.953924100465 143.17701976038614 L 1237.0605301464764 143.0805782907011 L 1237.1692642288817 142.9846235527597 L 1237.2801154743631 142.88916514195574 L 1237.3930727978884 142.79421260405076 L 1237.5081249038194 142.69977543421942 L 1237.6252602870416 142.60586307610004 L 1237.7444672341142 142.5124849208501 L 1237.8657338244416 142.41965030620742 L 1237.9890479314658 142.327368515556 L 1238.1143972238795 142.23564877699806 L 1238.241769166857 142.144500262431 L 1238.3711510233109 142.0539320866303 L 1238.502529855163 141.96395330633814 L 1238.6358925246395 141.8745729193575 L 1238.771225695585 141.7857998636526 L 1238.9085158347948 141.6976430164551 L 1239.0477492133696 141.61011119337616 L 1239.1889119080874 141.52321314752518 L 1239.3319898027967 141.43695756863437 L 1239.4769685898268 141.3513530821897 L 1239.62383377142 141.26640824856847 L 1239.7725706611807 141.1821315621833 L 1239.9231643855437 141.09853145063252 L 1240.075599885262 141.01561627385772 L 1240.2298619169128 140.9333943233074 L 1240.3859350544215 140.85187382110814 L 1240.5438036906044 140.7710629192422 L 1240.7034520387292 140.69096969873246 L 1240.8648641340944 140.6116021688342 L 1241.0280238356247 140.53296826623426 L 1241.1929148274864 140.45507585425742 L 1241.3595206207174 140.3779327220799 L 1241.527824554877 140.30154658395068 L 1241.6978097997123 140.2259250784199 L 1241.8694593568407 140.1510757675751 L 1242.042756061449 140.077006136285 L 1242.2176825840115 140.00372359145098 L 1242.3942214320216 139.93123546126648 L 1242.5723549517418 139.8595489944841 L 1242.7520653299682 139.7886713596908 L 1242.9333345958132 139.71860964459094 L 1243.116144622501 139.6493708552977 L 1243.3004771291812 139.5809619156323 L 1243.4863136827569 139.51338966643166 L 1243.6736356997274 139.44666086486444 L 1243.8624244480475 139.38078218375517 L 1244.0526610489992 139.3157602109171 L 1244.2443264790813 139.25160144849323 L 1244.4374015719104 139.18831231230644 L 1244.631867020138 139.12589913121755 L 1244.8277033773816 139.06436814649268 L 1245.0248910601686 139.00372551117903 L 1245.2234103498947 138.94397728948957 L 1245.4232413947966 138.88512945619672 L 1245.6243642119366 138.82718789603473 L 1245.8267586892002 138.77015840311134 L 1246.0304045873083 138.71404668032835 L 1246.2352815418412 138.65885833881123 L 1246.4413690652739 138.60459889734818 L 1246.648646549026 138.55127378183812 L 1246.8570932655214 138.49888832474815 L 1247.0666883702625 138.44744776458035 L 1247.2774109039135 138.39695724534783 L 1247.4892397943966 138.3474218160605 L 1247.702153858999 138.29884643021995 L 1247.916131806492 138.2512359453243 L 1248.1311522392593 138.2045951223824 L 1248.3471936554365 138.1589286254376 L 1248.5642344510622 138.1142410211016 L 1248.7822529222374 138.07053677809762 L 1249.001227267297 138.02782026681345 L 1249.2211355889888 137.9860957588647 L 1249.441955896664 137.94536742666736 L 1249.6636661084756 137.90563934302074 L 1249.8862440535875 137.86691548070004 L 1250.1096674743906 137.82919971205928 L 1250.3339140287287 137.79249580864388 L 1250.5589612921337 137.75680744081356 L 1250.7847867600665 137.7221381773754 L 1251.0113678501684 137.68849148522685 L 1251.2386819045196 137.65587072900905 L 1251.4667061919038 137.6242791707705 L 1251.6954179100821 137.59371996964066 L 1251.9247941880737 137.56419618151418 L 1252.1548120884418 137.53571075874527 L 1252.385448609588 137.50826654985244 L 1252.6166806880524 137.4818662992338 L 1252.8484852008198 137.4565126468923 L 1253.0808389676322 137.4322081281721 L 1253.3137187533064 137.4089551735048 L 1253.547101270058 137.38675610816654 L 1253.7809631798295 137.3656131520453 L 1254.0152810966254 137.3455284194191 L 1254.250031588849 137.3265039187445 L 1254.4851911816465 137.3085415524556 L 1254.720736359255 137.29164311677417 L 1254.9566435673526 137.27581030152965 L 1255.1928892154153 137.26104468999037 L 1255.429449679075 137.24734775870522 L 1255.666301302483 137.23472087735584 L 1255.9034204006734 137.2231653086199 L 1256.140783261935 137.21268220804464 L 1256.3783661501786 137.20327262393135 L 1256.6161453073141 137.19493749723065 L 1256.8540969556234 137.18767766144822 L 1257.0921973001402 137.1814938425616 L 1257.3304225310283 137.1763866589475 L 1257.5687488259632 137.1723566213201 L 1257.8071523525143 137.16940413267974 L 1258.0456092705272 137.16752948827283 L 1258.284095734509 137.16673287556227 L 1258.522587896012 137.16701437420866 L 1258.761061906019 137.16837395606237 L 1258.9994939173273 137.17081148516635 L 1259.2378600869347 137.1743267177697 L 1259.4761365784232 137.1789193023521 L 1259.7142995643414 137.18458877965895 L 1259.95232522859 137.1913345827472 L 1260.1901897688006 137.1991560370422 L 1260.4278693987173 137.208052360405 L 1260.6653403505752 137.2180226632107 L 1260.9025788774773 137.22906594843732 L 1261.1395612557683 137.24118111176554 L 1261.3762637874079 137.25436694168914 L 1261.61266280234 137.2686221196361 L 1261.8487346608606 137.2839452201005 L 1262.0844557559803 137.30033471078508 L 1262.319802515786 137.3177889527544 L 1262.5547514057978 137.33630620059884 L 1262.7892789313228 137.35588460260905 L 1263.0233616398034 137.37652220096112 L 1263.2569761231641 137.3982169319124 L 1263.4900990201513 137.42096662600792 L 1263.7227070186693 137.4447690082972 L 1263.9547768581124 137.46962169856184 L 1264.18628533169 137.49552221155355 L 1264.4172092887472 137.52246795724258 L 1264.6475256370816 137.55045624107683 L 1264.8772113452494 137.57948426425128 L 1265.1062434448718 137.60954912398773 L 1265.3345990329294 137.64064781382532 L 1265.562255274054 137.67277722392095 L 1265.7891894028107 137.7059341413604 L 1266.0153787259762 137.74011525047953 L 1266.2408006248063 137.77531713319595 L 1266.4654325572994 137.8115362693507 L 1266.689252060449 137.84876903706035 L 1266.9122367524915 137.88701171307918 L 1267.1343643351436 137.92626047317142 L 1267.355612595832 137.9665113924938 L 1267.5759594099152 138.00776044598788 L 1267.795382742895 138.05000350878274 L 1268.0138606526216 138.0932363566073 L 1268.2313712914854 138.13745466621276 L 1268.4478929086042 138.18265401580504 L 1268.6634038519967 138.22882988548685 L 1268.877882570748 138.2759776577097 L 1269.0913076171648 138.32409261773563 L 1269.3036576489208 138.37316995410876 L 1269.5149114311894 138.42320475913633 L 1269.7250478387687 138.47419202937957 L 1269.9340458581928 138.5261266661539 L 1270.1418845898338 138.57900347603896 L 1270.3485432499922 138.63281717139782 L 1270.5540011729738 138.68756237090574 L 1270.7582378131578 138.74323360008844 L 1270.9612327470502 138.7998252918694 L 1271.1629656753269 138.85733178712658 L 1271.3634164248629 138.91574733525837 L 1271.5625649507506 138.97506609475863 L 1271.7603913383032 139.03528213380088 L 1271.9568758050468 139.09638943083135 L 1272.1519987026984 139.1583818751713 L 1272.3457405191311 139.22125326762796 L 1272.5380818803246 139.28499732111442 L 1272.729003552303 139.3496076612785 L 1272.9184864430583 139.41507782714 L 1273.1065116044592 139.48140127173693 L 1273.2930602341462 139.54857136278005 L 1273.478113677412 139.61658138331626 L 1273.6616534290663 139.6854245324002 L 1273.843661135287 139.75509392577428 L 1274.0241185954549 139.82558259655724 L 1274.2030077639747 139.89688349594076 L 1274.3803107520787 139.9689894938943 L 1274.5560098296153 140.04189337987816 L 1274.7300874268237 140.1155878635645 L 1274.902526136089 140.19006557556636 L 1275.073308713684 140.26531906817462 L 1275.2424180814933 140.3413408161027 L 1275.4098373287209 140.41812321723916 L 1275.5755497135817 140.4956585934079 L 1275.7395386649755 140.57393919113588 L 1275.9017877841434 140.6529571824286 L 1276.062280846309 140.73270466555275 L 1276.2210018022997 140.81317366582647 L 1276.3779347801524 140.8943561364168 L 1276.5330640866998 140.97624395914434 L 1276.6863742091405 141.05882894529506 L 1276.8378498165903 141.14210283643916 L 1276.9874757616144 141.22605730525692 L 1277.1352370817433 141.3106839563714 L 1277.2811190009677 141.39597432718804 L 1277.4251069312177 141.4819198887408 L 1277.5671864738197 141.56851204654518 L 1277.7073434209385 141.65574214145755 L 1277.8455637569957 141.74360145054112 L 1277.981833660073 141.83208118793817 L 1278.1161395032939 141.9211725057487 L 1278.2484678561857 142.01086649491518 L 1278.3788054860233 142.10115418611346 L 1278.5071393591527 142.19202655064962 L 1278.6334566422934 142.28347450136295 L 1278.757744703822 142.37548889353457 L 1278.8799911150365 142.46806052580197 L 1279.0001836513973 142.56118014107906 L 1279.1183102937507 142.65483842748188 L 1279.2343592295315 142.74902601925987 L 1279.3483188539424 142.84373349773236 L 1279.460177771116 142.93895139223036 L 1279.5699247952539 143.03467018104382 L 1279.677548951745 143.13088029237363 L 1279.7830394782634 143.2275721052888 L 1279.8863858258446 143.32473595068862 L 1279.9875776599395 143.42236211226952 L 1280.0866048614494 143.5204408274967 L 1280.1834575277364 143.6189622885804 L 1280.2781259736148 143.7179166434566 L 1280.3706007323187 143.81729399677224 L 1280.4608725564494 143.9170844108748 L 1280.5489324188998 144.01727790680607 L 1280.634771513757 144.11786446529993 L 1280.7183812571827 144.21883402778434 L 1280.7997532882728 144.32017649738722 L 1280.8788794698917 144.42188173994606 L 1280.9557518894871 144.52393958502134 L 1281.0303628598813 144.62633982691358 L 1281.1027049200393 144.72907222568398 L 1281.1727708358155 144.83212650817825 L 1281.2405536006765 144.93549236905397 L 1281.3060464364025 145.03915947181127 L 1281.3692427937644 145.14311744982624 L 1281.430136353179 145.24735590738766 L 1281.4887210253414 145.3518644207367 L 1281.5449909518331 145.45663253910908 L 1281.5989405057085 145.56164978578028 L 1281.6505642920565 145.66690565911313 L 1281.6998571485424 145.77238963360804 L 1281.7468141459208 145.87809116095545 L 1281.7914305885317 145.98399967109071 L 1281.8337020147678 146.09010457325107 L 1281.8736241975216 146.1963952570347 L 1281.9111931446082 146.30286109346187 L 1281.9464050991644 146.40949143603757 L 1281.9792565400237 146.51627562181648 L 1282.0097441820694 146.62320297246893 L 1282.0378649765632 146.73026279534903 L 1282.0636161114487 146.83744438456367 L 1282.0869950116337 146.94473702204326 L 1282.1079993392482 147.05212997861346 L 1282.1266269938762 147.15961251506812 L 1282.1428761127686 147.26717388324312 L 1282.1567450710265 147.3748033270913 L 1282.1682324817657 147.48249008375802 L 1282.177337196255 147.59022338465726 L 1282.18405830403 147.69799245654877 L 1282.1883951329862 147.80578652261516 L 1282.1903472494437 147.9135948035396 M 1282.1904682394998 182.2518632181 L 1282.189275779596 182.35967376301662 L 1282.18569851913 182.4674735269686 L 1282.1797368158245 182.57525173006934 L 1282.1713912658454 182.68299759458841 L 1282.1606627037402 182.79070034602907 L 1282.1475522023563 182.898349214206 L 1282.132061072733 183.00593343432203 L 1282.1141908639704 183.11344224804486 L 1282.0939433630745 183.22086490458264 L 1282.0713205947782 183.3281906617593 L 1282.0463248213398 183.4354087870885 L 1282.0189585423159 183.54250855884712 L 1281.9892244943112 183.64947926714717 L 1281.957125650706 183.756310215007 L 1281.9226652213579 183.86299071942085 L 1281.885846652281 183.96951011242717 L 1281.846673625302 184.07585774217543 L 1281.80515005769 184.18202297399125 L 1281.761280101768 184.28799519143996 L 1281.7150681444948 184.3937637973881 L 1281.6665188070274 184.49931821506323 L 1281.6156369442594 184.60464788911153 L 1281.5624276443343 184.70974228665338 L 1281.5068962281382 184.81459089833658 L 1281.4490482487663 184.9191832393874 L 1281.388889490968 185.0235088506588 L 1281.3264259705693 185.12755729967668 L 1281.2616639338703 185.23131818168278 L 1281.1946098570202 185.33478112067542 L 1281.1252704453711 185.43793577044687 L 1281.0536526328067 185.54077181561814 L 1280.979763581048 185.6432789726704 L 1280.9036106789388 185.7454469909734 L 1280.825201541706 185.84726565381038 L 1280.744544010198 185.94872477939998 L 1280.6616461501005 186.04981422191415 L 1280.5765162511307 186.15052387249287 L 1280.4891628262073 186.25084366025504 L 1280.3995946106002 186.35076355330548 L 1280.307820561056 186.45027355973812 L 1280.2138498549036 186.54936372863529 L 1280.1176918891351 186.6480241510626 L 1280.0193562794668 186.74624496106009 L 1279.9188528593781 186.84401633662858 L 1279.8161916791269 186.94132850071202 L 1279.7113830047458 187.03817172217506 L 1279.604437317015 187.13453631677626 L 1279.4953653104142 187.2304126481365 L 1279.3841778920528 187.3257911287025 L 1279.2708861805802 187.42066222070568 L 1279.1555015050733 187.51501643711595 L 1279.0380354039032 187.60884434259026 L 1278.9184996235824 187.70213655441623 L 1278.796906117589 187.79488374345047 L 1278.6732670451727 187.88707663505133 L 1278.5475947701373 187.9787060100065 L 1278.4199018596057 188.06976270545482 L 1278.290201082763 188.16023761580266 L 1278.1585054095779 188.25012169363436 L 1278.0248280095086 188.33940595061702 L 1277.8891822501837 188.42808145839936 L 1277.7515816960658 188.5161393495045 L 1277.612040107096 188.60357081821672 L 1277.4705714373167 188.69036712146203 L 1277.327189833477 188.77651957968237 L 1277.1819096336176 188.86201957770376 L 1277.034745365638 188.94685856559764 L 1276.8857117458417 189.03102805953588 L 1276.734823677467 189.1145196426393 L 1276.5820962491946 189.19732496581912 L 1276.4275447336402 189.27943574861203 L 1276.2711845858266 189.36084378000817 L 1276.1130314416384 189.44154091927226 L 1275.9531011162583 189.5215190967576 L 1275.791409602585 189.60077031471312 L 1275.6279730696356 189.67928664808304 L 1275.4628078609271 189.75706024529944 L 1275.295930492843 189.83408332906745 L 1275.1273576529804 189.91034819714287 L 1274.9571061984832 189.9858472231024 L 1274.785193154355 190.06057285710642 L 1274.6116357117571 190.13451762665377 L 1274.4364512262887 190.20767413732912 L 1274.2596572162527 190.2800350735424 L 1274.0812713609025 190.3515931992602 L 1273.9013114986753 190.42234135872968 L 1273.7197956254072 190.49227247719378 L 1273.5367418925343 190.56137956159898 L 1273.3521686052773 190.62965570129438 L 1273.1660942208111 190.69709406872295 L 1272.9785373464192 190.7636879201041 L 1272.7895167376325 190.82943059610824 L 1272.5990512963547 190.89431552252253 L 1272.4071600689708 190.95833621090839 L 1272.213862244444 191.0214862592503 L 1272.0191771523955 191.08375935259613 L 1271.8231242611723 191.1451492636884 L 1271.6257231759002 191.20564985358718 L 1271.426993636523 191.26525507228382 L 1271.2269555158293 191.32395895930622 L 1271.0256288174644 191.38175564431452 L 1270.8230336739302 191.43863934768845 L 1270.6191903445726 191.49460438110503 L 1270.4141192135542 191.54964514810757 L 1270.2078407878175 191.60375614466523 L 1270.0003756950332 191.65693195972344 L 1269.7917446815375 191.70916727574505 L 1269.581968610258 191.76045686924192 L 1269.371068458627 191.8107956112975 L 1269.159065316484 191.8601784680795 L 1268.9459803839663 191.90860050134341 L 1268.7318349693899 191.95605686892625 L 1268.5166504871177 192.00254282523082 L 1268.3004484554185 192.0480537217002 L 1268.0832504943153 192.09258500728268 L 1267.8650783234232 192.13613222888682 L 1267.6459537597777 192.17869103182676 L 1267.4258987156525 192.22025716025763 L 1267.2049351963683 192.26082645760127 L 1266.9830852980933 192.30039486696174 L 1266.7603712056323 192.33895843153107 L 1266.536815190209 192.37651329498493 L 1266.3124396072383 192.4130557018683 L 1266.087266894092 192.4485819979709 L 1265.8613195678536 192.48308863069278 L 1265.6346202230675 192.51657214939937 L 1265.407191529479 192.54902920576671 L 1265.1790562297683 192.58045655411627 L 1264.9502371372748 192.61085105173933 L 1264.7207571337176 192.6402096592115 L 1264.4906391669056 192.6685294406965 L 1264.2599062484435 192.69580756423974 L 1264.0285814514311 192.72204130205162 L 1263.7966879081553 192.74722803078024 L 1263.5642488077772 192.7713652317737 L 1263.331287394013 192.79445049133201 L 1263.0978269628101 192.81648150094847 L 1262.8638908600171 192.83745605754044 L 1262.6295024790493 192.85737206366977 L 1262.3946852585493 192.87622752775246 L 1262.1594626800436 192.89402056425777 L 1261.923858265594 192.9107493938969 L 1261.6878955754457 192.92641234380085 L 1261.451598205671 192.94100784768764 L 1261.2149897858098 192.95453444601907 L 1260.9780939765074 192.96699078614654 L 1260.7409344671469 192.9783756224465 L 1260.5035349734817 192.98868781644472 L 1260.2659192352633 192.99792633693042 L 1260.0281110138676 193.0060902600593 L 1259.7901340899186 193.01317876944577 L 1259.5520122609103 193.01919115624486 L 1259.313769338827 193.02412681922286 L 1259.0754291477626 193.02798526481763 L 1258.8370155215375 193.0307661071878 L 1258.598552301316 193.03246906825143 L 1258.3600633332208 193.03309397771386 L 1258.1215724659503 193.03264077308467 L 1257.8831035483925 193.0311094996839 L 1257.6446804272402 193.02850031063767 L 1257.4063269446071 193.0248134668627 L 1257.1680669356429 193.02004933704026 L 1256.9299242261495 193.0142083975794 L 1256.6919226301998 193.00729123256917 L 1256.454085947755 192.99929853372032 L 1256.216437962285 192.99023110029609 L 1255.9790024383906 192.98008983903225 L 1255.7418031194259 192.96887576404646 L 1255.5048637251255 192.9565899967369 L 1255.268207949231 192.94323376567004 L 1255.0318594571233 192.92880840645788 L 1254.7958418834544 192.9133153616243 L 1254.5601788297847 192.8967561804609 L 1254.3248938622237 192.87913251887196 L 1254.0900105090716 192.860446139209 L 1253.8555522584684 192.84069891009435 L 1253.6215425560433 192.8198928062345 L 1253.3880048025721 192.7980299082225 L 1253.154962351635 192.77511240232997 L 1252.9224385072835 192.75114258028833 L 1252.6904565217076 192.72612283905983 L 1252.4590395929129 192.70005568059779 L 1252.2282108623995 192.67294371159628 L 1251.9979934128478 192.64478964322961 L 1251.7684102658113 192.61559629088117 L 1251.5394843794131 192.5853665738619 L 1251.3112386460512 192.55410351511824 L 1251.0836958901084 192.52181024093008 L 1250.8568788656712 192.4884899805979 L 1250.6308102542525 192.45414606611993 L 1250.4055126625256 192.41878193185906 L 1250.1810086200617 192.3824011141992 L 1249.9573205770778 192.34500725119184 L 1249.7344709021918 192.30660408219208 L 1249.5124818801858 192.26719544748485 L 1249.2913757097765 192.22678528790075 L 1249.0711745013973 192.1853776444221 L 1248.851900274985 192.1429766577787 L 1248.6335749577797 192.09958656803389 L 1248.4162203821315 192.0552117141605 L 1248.1998582833164 192.00985653360692 L 1247.984510297364 191.96352556185343 L 1247.7701979588937 191.9162234319586 L 1247.5569426989607 191.867954874096 L 1247.3447658429131 191.81872471508117 L 1247.13368860826 191.768537877889 L 1246.9237321025487 191.7173993811614 L 1246.7149173212547 191.6653143387054 L 1246.5072651456824 191.61228795898188 L 1246.300796340876 191.55832554458456 L 1246.0955315535446 191.50343249171 L 1245.891491309995 191.44761428961766 L 1245.688696014082 191.39087652008126 L 1245.4871659451665 191.3332248568305 L 1245.2869212560865 191.27466506498365 L 1245.0879819711452 191.21520300047106 L 1244.8903679841044 191.1548446094497 L 1244.6940990561984 191.0935959277083 L 1244.4991948141567 191.03146308006401 L 1244.3056747482406 190.96845227974987 L 1244.1135582102959 190.90456982779335 L 1243.9228644118161 190.83982211238643 L 1243.7336124220221 190.7742156082467 L 1243.5458211659552 190.70775687596986 L 1243.3595094225846 190.64045256137382 L 1243.1746958229292 190.5723093948339 L 1242.991398848195 190.50333419061 L 1242.8096368279269 190.43353384616503 L 1242.6294279381752 190.36291534147531 L 1242.450790199679 190.29148573833243 L 1242.2737414760632 190.2192521796372 L 1242.0982994720523 190.1462218886853 L 1241.9244817317008 190.0724021684449 L 1241.7523056366379 189.9978004008266 L 1241.5817884043297 189.92242404594495 L 1241.412947086357 189.84628064137263 L 1241.245798566711 189.76937780138664 L 1241.0803595601046 189.69172321620687 L 1240.9166466103006 189.61332465122717 L 1240.7546760884572 189.5341899462387 L 1240.5944641914919 189.454327014646 L 1240.4360269404608 189.37374384267568 L 1240.2793801789571 189.29244848857778 L 1240.1245395715262 189.21044908181995 L 1239.9715206020999 189.12775382227457 L 1239.8203385724476 189.04437097939865 L 1239.6710086006462 188.960308891407 L 1239.5235456195687 188.87557596443838 L 1239.3779643753903 188.7901806717149 L 1239.2342794261137 188.7041315526946 L 1239.0925051401146 188.6174372122177 L 1238.952655694703 188.53010631964605 L 1238.8147450747074 188.44214760799608 L 1238.6787870710743 188.35356987306568 L 1238.5447952794914 188.26438197255453 L 1238.4127830990255 188.17459282517834 L 1238.2827637307853 188.08421140977703 L 1238.1547501765988 187.99324676441682 L 1238.028755237715 187.90170798548647 L 1237.9047915135225 187.80960422678757 L 1237.7828714002908 187.71694469861922 L 1237.6630070899294 187.62373866685704 L 1237.5452105687693 187.52999545202653 L 1237.4294936163649 187.43572442837106 L 1237.3158678043148 187.34093502291444 L 1237.2043444951053 187.2456367145182 L 1237.0949348409747 187.1498390329338 L 1236.987649782797 187.05355155784954 L 1236.8825000489887 186.9567839179327 L 1236.7794961544357 186.85954578986664 L 1236.6786483994415 186.76184689738312 L 1236.5799668686973 186.66369701028998 L 1236.4834614302745 186.56510594349413 L 1236.3891417346358 186.46608355602012 L 1236.297017213673 186.36663975002412 L 1236.2070970797608 186.26678446980392 L 1236.1193903248377 186.1665277008043 L 1236.0339057195065 186.06587946861862 L 1235.9506518121561 185.96484983798624 L 1235.8696369281083 185.863448911786 L 1235.7908691687835 185.76168683002604 L 1235.7143564108922 185.65957376882972 L 1235.6401063056464 185.5571199394181 L 1235.5681262779947 185.4543355870887 L 1235.49842352588 185.3512309901911 L 1235.4310050195195 185.24781645909914 L 1235.3658775007075 185.14410233517967 L 1235.3030474821417 185.0400989897587 L 1235.2425212467715 184.93581682308405 L 1235.18430484717 184.83126626328556 L 1235.1284041049287 184.72645776533201 L 1235.0748246100752 184.6214018099859 L 1235.0235717205146 184.51610890275524 L 1234.9746505614926 184.41058957284298 L 1234.928066025085 184.30485437209416 L 1234.8838227697058 184.19891387394074 L 1234.8419252196445 184.0927786723443 L 1234.8023775646207 183.98645938073653 L 1234.7651837593671 183.87996663095797 L 1234.7303475232331 183.7733110721949 L 1234.6978723398136 183.66650336991427 L 1234.6677614565995 183.5595542047973 L 1234.6400178846543 183.45247427167143 L 1234.6146443983118 183.3452742784407 L 1234.5916435349 183.2379649450151 L 1234.5710175944855 183.1305570022386 L 1234.5527686396454 183.02306119081587 L 1234.53689849526 182.91548826023856 L 1234.5234087483304 182.80784896771007 L 1234.5123007478203 182.7001540770699 L 1234.5035756045202 182.59241435771744 L 1234.4972341909372 182.4846405835348 L 1234.4932771412075 182.37684353180958 L 1234.4917048510329 182.26903398215717" stroke-miterlimit="10" stroke-width="2.7769845610000004" stroke-dasharray=""/></g><g><text fill="black" stroke="none" font-family="sans-serif" font-size="11pt" font-style="normal" font-weight="normal" text-decoration="normal" x="1204.3410714214997" y="210.560770537" text-anchor="start" dominant-baseline="alphabetic">Distribution View</text></g></g><g><g><g/><g/><path fill="none" stroke="black" paint-order="fill stroke markers" d=" M 8.16760165 8.16760165 L 1357.9858115514996 8.16760165 L 1357.9858115514996 553.600039837 L 8.16760165 553.600039837 L 8.16760165 8.16760165 Z" stroke-miterlimit="10" stroke-width="1.3612669416666667" stroke-dasharray=""/><path fill="white" stroke="black" paint-order="fill stroke markers" d=" M 8.16760165 8.16760165 L 8.16760165 31.036886269999997 L 291.83800825000003 31.036886269999997 L 303.27265056000005 19.60224396 L 303.27265056000005 8.16760165 L 8.16760165 8.16760165" stroke-miterlimit="10" stroke-width="1.3612669416666667" stroke-dasharray=""/><text fill="black" stroke="none" font-family="sans-serif" font-size="11pt" font-style="normal" font-weight="bold" text-decoration="normal" x="24.502804949999998" y="23.686044784999996" text-anchor="start" dominant-baseline="alphabetic">sd</text><text fill="black" stroke="none" font-family="sans-serif" font-size="11pt" font-style="normal" font-weight="normal" text-decoration="normal" x="45.50280495" y="23.686044784999996" text-anchor="start" dominant-baseline="alphabetic">ClientGoodbye_StandardProcedure</text></g><g><text fill="black" stroke="none" font-family="sans-serif" font-size="11pt" font-style="normal" font-weight="normal" text-decoration="normal" x="625.8830413090832" y="262.833421097" text-anchor="start" dominant-baseline="alphabetic">PUBLISH clients/goodbye</text><text fill="black" stroke="none" font-family="sans-serif" font-size="11pt" font-style="normal" font-weight="normal" text-decoration="normal" x="625.8830413090832" y="279.168624397" text-anchor="start" dominant-baseline="alphabetic">(</text><text fill="black" stroke="none" font-family="sans-serif" font-size="11pt" font-style="italic" font-weight="normal" text-decoration="normal" x="630.8830413090832" y="279.168624397" text-anchor="start" dominant-baseline="alphabetic">ClientGoodbye</text><text fill="black" stroke="none" font-family="sans-serif" font-size="11pt" font-style="normal" font-weight="normal" text-decoration="normal" x="727.8830413090832" y="279.168624397" text-anchor="start" dominant-baseline="alphabetic"> Event)</text></g><g><path fill="none" stroke="black" paint-order="fill stroke markers" d=" M 871.1089609909999 285.702705717 L 549.3796555104999 285.702705717" stroke-miterlimit="10" stroke-width="1.3612669416666667" stroke-dasharray=""/><g transform="translate(546.6571216271666,285.702705717) translate(-546.6571216271666,-285.702705717)"><path fill="none" stroke="black" paint-order="fill stroke markers" d=" M 560.2697910438333 278.8963710086667 L 548.0183885688333 285.702705717 L 560.2697910438333 292.50904042533335" stroke-miterlimit="10" stroke-width="1.3612669416666667"/></g></g><g><text fill="black" stroke="none" font-family="sans-serif" font-size="11pt" font-style="normal" font-weight="normal" text-decoration="normal" x="323.93120194524994" y="324.907193637" text-anchor="start" dominant-baseline="alphabetic">PUBLISH clients/goodbye</text><text fill="black" stroke="none" font-family="sans-serif" font-size="11pt" font-style="normal" font-weight="normal" text-decoration="normal" x="323.93120194524994" y="341.24239693699997" text-anchor="start" dominant-baseline="alphabetic">(</text><text fill="black" stroke="none" font-family="sans-serif" font-size="11pt" font-style="italic" font-weight="normal" text-decoration="normal" x="328.93120194524994" y="341.24239693699997" text-anchor="start" dominant-baseline="alphabetic">ClientGoodbye</text><text fill="black" stroke="none" font-family="sans-serif" font-size="11pt" font-style="normal" font-weight="normal" text-decoration="normal" x="425.93120194524994" y="341.24239693699997" text-anchor="start" dominant-baseline="alphabetic"> Event)</text></g><g><path fill="none" stroke="black" paint-order="fill stroke markers" d=" M 546.6571216271666 347.776478257 L 269.9278161466666 347.776478257" stroke-miterlimit="10" stroke-width="1.3612669416666667" stroke-dasharray=""/><g transform="translate(267.2052822633333,347.776478257) translate(-267.2052822633333,-347.776478257)"><path fill="none" stroke="black" paint-order="fill stroke markers" d=" M 280.81795167999996 340.97014354866667 L 268.56654920499994 347.776478257 L 280.81795167999996 354.58281296533335" stroke-miterlimit="10" stroke-width="1.3612669416666667"/></g></g><g><text fill="black" stroke="none" font-family="sans-serif" font-size="11pt" font-style="normal" font-weight="normal" text-decoration="normal" x="735.7188254576665" y="324.907193637" text-anchor="start" dominant-baseline="alphabetic">PUBLISH clients/goodbye</text><text fill="black" stroke="none" font-family="sans-serif" font-size="11pt" font-style="normal" font-weight="normal" text-decoration="normal" x="735.7188254576665" y="341.24239693699997" text-anchor="start" dominant-baseline="alphabetic">(</text><text fill="black" stroke="none" font-family="sans-serif" font-size="11pt" font-style="italic" font-weight="normal" text-decoration="normal" x="740.7188254576665" y="341.24239693699997" text-anchor="start" dominant-baseline="alphabetic">ClientGoodbye</text><text fill="black" stroke="none" font-family="sans-serif" font-size="11pt" font-style="normal" font-weight="normal" text-decoration="normal" x="837.7188254576665" y="341.24239693699997" text-anchor="start" dominant-baseline="alphabetic"> Event)</text></g><g><path fill="none" stroke="black" paint-order="fill stroke markers" d=" M 546.6571216271666 347.776478257 L 1088.057995404833 347.776478257" stroke-miterlimit="10" stroke-width="1.3612669416666667" stroke-dasharray=""/><g transform="translate(1090.7805292881665,347.776478257) translate(-1090.7805292881665,-347.776478257)"><path fill="none" stroke="black" paint-order="fill stroke markers" d=" M 1077.1678598714998 340.97014354866667 L 1089.4192623464999 347.776478257 L 1077.1678598714998 354.58281296533335" stroke-miterlimit="10" stroke-width="1.3612669416666667"/></g></g><g><text fill="black" stroke="none" font-family="sans-serif" font-size="11pt" font-style="normal" font-weight="normal" text-decoration="normal" x="121.42501119666665" y="431.08601508699996" text-anchor="start" dominant-baseline="alphabetic">remove Client from</text><text fill="black" stroke="none" font-family="sans-serif" font-size="11pt" font-style="italic" font-weight="normal" text-decoration="normal" x="121.42501119666665" y="447.42121838699995" text-anchor="start" dominant-baseline="alphabetic">Distribution View</text></g><g><path fill="none" stroke="black" paint-order="fill stroke markers" d=" M 267.2052822633333 453.955299707 L 102.36727401333334 453.955299707" stroke-miterlimit="10" stroke-width="1.3612669416666667" stroke-dasharray=""/><g transform="translate(99.64474013,453.955299707) translate(-99.64474013,-453.955299707)"><path fill="none" stroke="black" paint-order="fill stroke markers" d=" M 113.25740954666668 447.14896499866666 L 101.00600707166667 453.955299707 L 113.25740954666668 460.76163441533333" stroke-miterlimit="10" stroke-width="1.3612669416666667"/></g></g><g><text fill="black" stroke="none" font-family="sans-serif" font-size="11pt" font-style="normal" font-weight="normal" text-decoration="normal" x="1112.5608003548332" y="431.08601508699996" text-anchor="start" dominant-baseline="alphabetic">remove Client from</text><text fill="black" stroke="none" font-family="sans-serif" font-size="11pt" font-style="italic" font-weight="normal" text-decoration="normal" x="1112.5608003548332" y="447.42121838699995" text-anchor="start" dominant-baseline="alphabetic">Distribution View</text></g><g><path fill="none" stroke="black" paint-order="fill stroke markers" d=" M 1090.7805292881665 453.955299707 L 1255.6185375381663 453.955299707" stroke-miterlimit="10" stroke-width="1.3612669416666667" stroke-dasharray=""/><g transform="translate(1258.3410714214997,453.955299707) translate(-1258.3410714214997,-453.955299707)"><path fill="none" stroke="black" paint-order="fill stroke markers" d=" M 1244.728402004833 447.14896499866666 L 1256.979804479833 453.955299707 L 1244.728402004833 460.76163441533333" stroke-miterlimit="10" stroke-width="1.3612669416666667"/></g></g><g><g/><path fill="none" stroke="black" paint-order="fill stroke markers" d=" M 42.471528580000005 372.279283207 L 1315.5142829714996 372.279283207 L 1315.5142829714996 478.458104657 L 42.471528580000005 478.458104657 L 42.471528580000005 372.279283207 Z" stroke-miterlimit="10" stroke-width="2.3336004714285714" stroke-dasharray=""/><path fill="white" stroke="black" paint-order="fill stroke markers" d=" M 42.471528580000005 372.279283207 L 42.471528580000005 391.881527167 L 94.14193518 391.881527167 L 103.94305716000001 382.080405187 L 103.94305716000001 372.279283207 L 42.471528580000005 372.279283207" stroke-miterlimit="10" stroke-width="2.3336004714285714" stroke-dasharray=""/><text fill="black" stroke="none" font-family="sans-serif" font-size="8.8pt" font-style="normal" font-weight="bold" text-decoration="normal" x="58.80673188" y="385.347445847" text-anchor="start" dominant-baseline="alphabetic">par</text></g></g></g></svg>