<svg version="1.1" xmlns="http://www.w3.org/2000/svg" xmlns:xlink="http://www.w3.org/1999/xlink" width="991" height="579"><defs/><g><g/><g/><g/><g/><g/><g/><g/><g/><g/><g/><g/><g/><g/><g><rect fill="white" stroke="none" x="0" y="0" width="991" height="579"/></g><g><text fill="black" stroke="none" font-family="sans-serif" font-size="16.5pt" font-style="normal" font-weight="normal" text-decoration="normal" x="308.56479496973435" y="73.50841485" text-anchor="start" dominant-baseline="alphabetic">Publish File Info (Standard Procedure)</text></g><g><g><path fill="none" stroke="black" paint-order="fill stroke markers" d=" M 34.303926929999996 132.56017477950002 L 168.08652139100002 132.56017477950002 L 168.08652139100002 545.432438187 L 34.303926929999996 545.432438187 L 34.303926929999996 132.56017477950002" stroke-miterlimit="10" stroke-width="1.3612669416666667" stroke-dasharray=""/></g><g><text fill="black" stroke="none" font-family="sans-serif" font-size="11pt" font-style="normal" font-weight="normal" text-decoration="normal" x="53.195224160500004" y="155.4294593995" text-anchor="start" dominant-baseline="alphabetic">Tracker Server</text></g><g><path fill="none" stroke="black" paint-order="fill stroke markers" d=" M 305.7557662938333 132.56017477950002 L 445.5383607548333 132.56017477950002 L 445.5383607548333 545.432438187 L 305.7557662938333 545.432438187 L 305.7557662938333 132.56017477950002" stroke-miterlimit="10" stroke-width="1.3612669416666667" stroke-dasharray=""/></g><g><text fill="black" stroke="none" font-family="sans-serif" font-size="11pt" font-style="normal" font-weight="normal" text-decoration="normal" x="342.1470635243333" y="155.4294593995" text-anchor="start" dominant-baseline="alphabetic">Event Bus</text></g><g><path fill="none" stroke="black" paint-order="fill stroke markers" d=" M 583.2076056576665 99.3997120805 L 917.9946483214999 99.3997120805 L 917.9946483214999 545.432438187 L 583.2076056576665 545.432438187 L 583.2076056576665 99.3997120805" stroke-miterlimit="10" stroke-width="1.3612669416666667" stroke-dasharray=""/></g><g><text fill="black" stroke="none" font-family="sans-serif" font-size="11pt" font-style="normal" font-weight="normal" text-decoration="normal" x="694.6011269895832" y="122.2689967005" text-anchor="start" dominant-baseline="alphabetic">Registered Client</text></g></g><g><path fill="none" stroke="black" paint-order="fill stroke markers" d=" M 101.1952241605 215.461331527 L 101.1952241605 545.432438187" stroke-miterlimit="10" stroke-width="1.3612669416666667" stroke-dasharray="12.565541,5.445067766666667"/><path fill="none" stroke="black" paint-order="fill stroke markers" d=" M 375.6470635243333 215.461331527 L 375.6470635243333 545.432438187" stroke-miterlimit="10" stroke-width="1.3612669416666667" stroke-dasharray="12.565541,5.445067766666667"/><path fill="none" stroke="black" paint-order="fill stroke markers" d=" M 650.0989028881665 215.461331527 L 650.0989028881665 545.432438187" stroke-miterlimit="10" stroke-width="1.3612669416666667" stroke-dasharray="12.565541,5.445067766666667"/><path fill="none" stroke="black" paint-order="fill stroke markers" d=" M 855.8270466714998 215.461331527 L 855.8270466714998 545.432438187" stroke-miterlimit="10" stroke-width="1.3612669416666667" stroke-dasharray="12.565541,5.445067766666667"/></g><g><path fill="none" stroke="none"/><g><path fill="white" stroke="black" paint-order="fill stroke markers" d=" M 42.47152858 171.51963465 L 159.91891974100002 171.51963465 L 159.91891974100002 215.461331527 L 42.47152858 215.461331527 L 42.47152858 171.51963465 Z" stroke-miterlimit="10" stroke-width="2.613632528" stroke-dasharray=""/></g><g><text fill="black" stroke="none" font-family="sans-serif" font-size="11pt" font-style="normal" font-weight="normal" text-decoration="normal" x="60.195224160500004" y="199.126128227" text-anchor="start" dominant-baseline="alphabetic">MQTT Client</text></g><path fill="none" stroke="none"/><g><path fill="white" stroke="black" paint-order="fill stroke markers" d=" M 313.9233679438333 171.51963465 L 437.37075910483327 171.51963465 L 437.37075910483327 215.461331527 L 313.9233679438333 215.461331527 L 313.9233679438333 171.51963465 Z" stroke-miterlimit="10" stroke-width="2.613632528" stroke-dasharray=""/></g><g><text fill="black" stroke="none" font-family="sans-serif" font-size="11pt" font-style="normal" font-weight="normal" text-decoration="normal" x="331.6470635243333" y="199.126128227" text-anchor="start" dominant-baseline="alphabetic">MQTT Broker</text></g><path fill="none" stroke="none"/><g><path fill="white" stroke="black" paint-order="fill stroke markers" d=" M 591.3752073076665 171.51963465 L 708.8225984686666 171.51963465 L 708.8225984686666 215.461331527 L 591.3752073076665 215.461331527 L 591.3752073076665 171.51963465 Z" stroke-miterlimit="10" stroke-width="2.613632528" stroke-dasharray=""/></g><g><text fill="black" stroke="none" font-family="sans-serif" font-size="11pt" font-style="normal" font-weight="normal" text-decoration="normal" x="609.0989028881665" y="199.126128227" text-anchor="start" dominant-baseline="alphabetic">MQTT Client</text></g><g><path fill="white" stroke="black" paint-order="fill stroke markers" d=" M 831.9776498534999 183.444333059 L 831.9776498534999 149.140406129 L 879.6764434894998 149.140406129 L 879.6764434894998 183.444333059" stroke-miterlimit="10" stroke-width="2.7769845610000004" stroke-dasharray=""/><path fill="white" stroke="black" paint-order="fill stroke markers" d=" M 879.6764434894998 147.9479362881 L 879.6752510295961 148.05574683301663 L 879.67167376913 148.16354659696862 L 879.6657120658248 148.27132480006935 L 879.6573665158454 148.37907066458843 L 879.6466379537402 148.48677341602908 L 879.6335274523564 148.59442228420602 L 879.6180363227331 148.70200650432204 L 879.6001661139705 148.80951531804487 L 879.5799186130745 148.91693797458265 L 879.5572958447783 149.0242637317593 L 879.5323000713399 149.13148185708852 L 879.5049337923159 149.23858162884713 L 879.4751997443113 149.34555233714718 L 879.4431009007062 149.45238328500702 L 879.4086404713581 149.55906378942086 L 879.3718219022813 149.66558318242718 L 879.332648875302 149.77193081217544 L 879.2911253076902 149.87809604399126 L 879.2472553517682 149.98406826143997 L 879.2010433944948 150.0898368673881 L 879.1524940570275 150.19539128506324 L 879.1016121942595 150.30072095911154 L 879.0484028943346 150.4058153566534 L 878.9928714781383 150.5106639683366 L 878.9350234987663 150.6152563093874 L 878.8748647409682 150.7195819206588 L 878.8124012205695 150.8236303696767 L 878.7476391838703 150.9273912516828 L 878.6805851070203 151.03085419067543 L 878.6112456953714 151.13400884044688 L 878.5396278828067 151.23684488561815 L 878.465738831048 151.3393520426704 L 878.389585928939 151.4415200609734 L 878.3111767917062 151.5433387238104 L 878.2305192601981 151.6447978494 L 878.1476214001007 151.74588729191416 L 878.0624915011308 151.84659694249288 L 877.9751380762074 151.94691673025505 L 877.8855698606002 152.0468366233055 L 877.7937958110562 152.14634662973813 L 877.6998251049038 152.2454367986353 L 877.6036671391352 152.3440972210626 L 877.5053315294671 152.4423180310601 L 877.4048281093783 152.5400894066286 L 877.3021669291271 152.63740157071203 L 877.1973582547461 152.73424479217508 L 877.0904125670152 152.83060938677627 L 876.9813405604142 152.92648571813652 L 876.8701531420529 153.0218641987025 L 876.7568614305803 153.1167352907057 L 876.6414767550734 153.21108950711596 L 876.5240106539034 153.30491741259027 L 876.4044748735824 153.39820962441624 L 876.2828813675892 153.49095681345048 L 876.1592422951728 153.58314970505134 L 876.0335700201374 153.67477908000652 L 875.905877109606 153.76583577545483 L 875.7761763327629 153.85631068580267 L 875.644480659578 153.94619476363437 L 875.5108032595087 154.03547902061703 L 875.3751575001838 154.12415452839937 L 875.237556946066 154.2122124195045 L 875.0980153570961 154.29964388821674 L 874.9565466873167 154.38644019146204 L 874.813165083477 154.47259264968238 L 874.6678848836178 154.55809264770377 L 874.520720615638 154.64293163559765 L 874.3716869958419 154.7271011295359 L 874.220798927467 154.8105927126393 L 874.0680714991946 154.89339803581913 L 873.9135199836403 154.97550881861204 L 873.7571598358269 155.05691685000818 L 873.5990066916386 155.13761398927227 L 873.4390763662583 155.2175921667576 L 873.2773848525851 155.29684338471313 L 873.1139483196358 155.37535971808305 L 872.9487831109273 155.45313331529945 L 872.7819057428429 155.53015639906747 L 872.6133329029805 155.60642126714288 L 872.4430814484833 155.68192029310242 L 872.2711684043552 155.75664592710643 L 872.0976109617571 155.8305906966538 L 871.9224264762888 155.90374720732913 L 871.7456324662528 155.9761081435424 L 871.5672466109028 156.04766626926022 L 871.3872867486755 156.1184144287297 L 871.2057708754074 156.1883455471938 L 871.0227171425345 156.257452631599 L 870.8381438552775 156.3257287712944 L 870.6520694708113 156.39316713872296 L 870.4645125964194 156.45976099010412 L 870.2754919876327 156.52550366610825 L 870.0850265463548 156.59038859252254 L 869.893135318971 156.6544092809084 L 869.6998374944442 156.71755932925032 L 869.5051524023957 156.77983242259614 L 869.3090995111725 156.84122233368842 L 869.1116984259003 156.9017229235872 L 868.9129688865232 156.96132814228383 L 868.7129307658295 157.02003202930624 L 868.5116040674645 157.07782871431453 L 868.3090089239305 157.13471241768846 L 868.1051655945727 157.19067745110505 L 867.9000944635544 157.24571821810758 L 867.6938160378177 157.29982921466524 L 867.4863509450333 157.35300502972345 L 867.2777199315376 157.40524034574506 L 867.0679438602582 157.45652993924193 L 866.8570437086272 157.5068686812975 L 866.6450405664841 157.55625153807952 L 866.4319556339665 157.60467357134343 L 866.2178102193901 157.65212993892627 L 866.0026257371178 157.69861589523083 L 865.7864237054185 157.7441267917002 L 865.5692257443154 157.7886580772827 L 865.3510535734234 157.83220529888683 L 865.1319290097779 157.87476410182677 L 864.9118739656525 157.91633023025764 L 864.6909104463684 157.95689952760128 L 864.4690605480935 157.99646793696175 L 864.2463464556324 158.03503150153108 L 864.022790440209 158.07258636498494 L 863.7984148572385 158.1091287718683 L 863.5732421440922 158.14465506797092 L 863.3472948178538 158.1791617006928 L 863.1205954730676 158.21264521939938 L 862.8931667794792 158.24510227576673 L 862.6650314797683 158.27652962411628 L 862.4362123872751 158.30692412173934 L 862.2067323837177 158.33628272921152 L 861.9766144169057 158.3646025106965 L 861.7458814984436 158.39188063423975 L 861.5145567014313 158.41811437205163 L 861.2826631581554 158.44330110078025 L 861.0502240577773 158.4674383017737 L 860.8172626440132 158.49052356133203 L 860.5838022128103 158.51255457094848 L 860.3498661100173 158.53352912754045 L 860.1154777290493 158.55344513366978 L 859.8806605085493 158.57230059775247 L 859.6454379300437 158.59009363425778 L 859.4098335155941 158.60682246389692 L 859.1738708254458 158.62248541380086 L 858.9375734556711 158.63708091768765 L 858.7009650358101 158.65060751601908 L 858.4640692265075 158.66306385614655 L 858.226909717147 158.6744486924465 L 857.9895102234818 158.68476088644474 L 857.7518944852634 158.69399940693043 L 857.5140862638677 158.7021633300593 L 857.2761093399187 158.70925183944578 L 857.0379875109103 158.71526422624487 L 856.7997445888271 158.72019988922287 L 856.5614043977628 158.72405833481764 L 856.3229907715378 158.7268391771878 L 856.084527551316 158.72854213825144 L 855.8460385832209 158.72916704771387 L 855.6075477159503 158.72871384308468 L 855.3690787983925 158.72718256968392 L 855.1306556772403 158.72457338063768 L 854.8923021946073 158.7208865368627 L 854.6540421856429 158.71612240704027 L 854.4158994761497 158.71028146757942 L 854.1778978802 158.70336430256918 L 853.9400611977552 158.69537160372033 L 853.7024132122853 158.6863041702961 L 853.4649776883907 158.67616290903226 L 853.227778369426 158.66494883404647 L 852.9908389751256 158.65266306673692 L 852.7541831992313 158.63930683567006 L 852.5178347071235 158.6248814764579 L 852.2818171334544 158.60938843162432 L 852.0461540797849 158.5928292504609 L 851.8108691122237 158.57520558887197 L 851.5759857590717 158.556519209209 L 851.3415275084684 158.53677198009436 L 851.1075178060436 158.5159658762345 L 850.8739800525722 158.49410297822251 L 850.6409376016353 158.47118547232998 L 850.4084137572836 158.44721565028834 L 850.1764317717077 158.42219590905984 L 849.9450148429131 158.3961287505978 L 849.7141861123996 158.3690167815963 L 849.483968662848 158.34086271322963 L 849.2543855158115 158.31166936088118 L 849.0254596294131 158.28143964386192 L 848.7972138960512 158.25017658511825 L 848.5696711401085 158.2178833109301 L 848.3428541156712 158.18456305059792 L 848.1167855042528 158.15021913611994 L 847.8914879125258 158.11485500185907 L 847.6669838700617 158.07847418419922 L 847.4432958270778 158.04108032119186 L 847.2204461521919 158.0026771521921 L 846.9984571301858 157.96326851748486 L 846.7773509597768 157.92285835790076 L 846.5571497513973 157.8814507144221 L 846.3378755249852 157.8390497277787 L 846.11955020778 157.7956596380339 L 845.9021956321316 157.7512847841605 L 845.6858335333166 157.70592960360693 L 845.4704855473642 157.65959863185344 L 845.256173208894 157.6122965019586 L 845.0429179489608 157.564027944096 L 844.8307410929134 157.51479778508119 L 844.6196638582601 157.464610947889 L 844.4097073525487 157.41347245116143 L 844.2008925712548 157.3613874087054 L 843.9932403956825 157.3083610289819 L 843.7867715908764 157.25439861458457 L 843.5815068035447 157.19950556171 L 843.3774665599952 157.14368735961767 L 843.1746712640822 157.08694959008128 L 842.9731411951665 157.0292979268305 L 842.7728965060868 156.97073813498366 L 842.5739572211452 156.91127607047108 L 842.3763432341044 156.8509176794497 L 842.1800743061985 156.7896689977083 L 841.9851700641567 156.72753615006403 L 841.7916499982408 156.66452534974988 L 841.599533460296 156.60064289779336 L 841.4088396618163 156.53589518238644 L 841.2195876720223 156.4702886782467 L 841.0317964159553 156.40382994596987 L 840.8454846725847 156.33652563137383 L 840.6606710729293 156.2683824648339 L 840.4773740981952 156.19940726061 L 840.295612077927 156.12960691616505 L 840.1154031881755 156.05898841147533 L 839.9367654496792 155.98755880833244 L 839.7597167260633 155.91532524963722 L 839.5842747220524 155.8422949586853 L 839.410456981701 155.76847523844492 L 839.2382808866381 155.69387347082662 L 839.0677636543297 155.61849711594496 L 838.8989223363571 155.54235371137264 L 838.7317738167112 155.46545087138665 L 838.5663348101049 155.38779628620688 L 838.4026218603007 155.30939772122719 L 838.2406513384574 155.23026301623872 L 838.0804394414921 155.150400084646 L 837.922002190461 155.0698169126757 L 837.7653554289572 154.9885215585778 L 837.6105148215263 154.90652215181996 L 837.4574958521 154.82382689227458 L 837.3063138224477 154.74044404939866 L 837.1569838506464 154.65638196140702 L 837.0095208695689 154.5716490344384 L 836.8639396253903 154.4862537417149 L 836.7202546761139 154.40020462269462 L 836.5784803901147 154.31351028221772 L 836.4386309447033 154.22617938964606 L 836.3007203247075 154.1382206779961 L 836.1647623210745 154.0496429430657 L 836.0307705294914 153.96045504255454 L 835.8987583490257 153.87066589517835 L 835.7687389807853 153.78028447977704 L 835.6407254265988 153.68931983441684 L 835.5147304877149 153.59778105548648 L 835.3907667635226 153.50567729678758 L 835.2688466502909 153.41301776861923 L 835.1489823399295 153.31981173685705 L 835.0311858187696 153.22606852202654 L 834.9154688663651 153.13179749837107 L 834.8018430543149 153.03700809291445 L 834.6903197451055 152.94170978451822 L 834.5809100909748 152.84591210293382 L 834.4736250327971 152.74962462784956 L 834.3684752989889 152.65285698793272 L 834.2654714044359 152.55561885986666 L 834.1646236494415 152.45791996738313 L 834.0659421186974 152.35977008029 L 833.9694366802745 152.26117901349414 L 833.8751169846361 152.16215662602013 L 833.782992463673 152.06271282002413 L 833.6930723297609 151.96285753980393 L 833.605365574838 151.8626007708043 L 833.5198809695066 151.76195253861863 L 833.4366270621564 151.66092290798625 L 833.3556121781083 151.55952198178602 L 833.2768444187835 151.45775990002605 L 833.2003316608923 151.35564683882973 L 833.1260815556465 151.2531930094181 L 833.0541015279949 151.15040865708872 L 832.9843987758802 151.04730406019112 L 832.9169802695197 150.94388952909915 L 832.8518527507077 150.84017540517968 L 832.7890227321418 150.7361720597587 L 832.7284964967716 150.63188989308406 L 832.6702800971701 150.52733933328557 L 832.6143793549289 150.42253083533203 L 832.5607998600755 150.31747487998592 L 832.5095469705146 150.21218197275525 L 832.4606258114928 150.106662642843 L 832.414041275085 150.00092744209417 L 832.3697980197061 149.89498694394075 L 832.3279004696446 149.78885174234432 L 832.2883528146209 149.68253245073655 L 832.2511590093673 149.57603970095798 L 832.2163227732334 149.4693841421949 L 832.1838475898137 149.36257643991428 L 832.1537367065997 149.25562727479732 L 832.1259931346544 149.14854734167145 L 832.1006196483121 149.04134734844072 L 832.0776187849001 148.93403801501512 L 832.0569928444856 148.8266300722386 L 832.0387438896455 148.71913426081588 L 832.0228737452601 148.61156133023857 L 832.0093839983306 148.50392203771008 L 831.9982759978203 148.3962271470699 L 831.9895508545203 148.28848742771746 L 831.9832094409373 148.1807136535348 L 831.9792523912078 148.0729166018096 L 831.977680101033 147.96510705215718 L 831.978492727641 147.85729578544266 L 831.9816901897696 147.74949358270285 L 831.9872721676752 147.64171122406825 L 831.9952381031649 147.53395948768485 L 832.0055871996516 147.42624914863651 L 832.0183184222344 147.31859097786736 L 832.0334304978015 147.21099574110482 L 832.0509219151581 147.10347419778284 L 832.0707909251769 146.99603709996617 L 832.0930355409736 146.88869519127508 L 832.1176535381051 146.78145920581096 L 832.144642454792 146.67433986708303 L 832.1739995921654 146.56734788693586 L 832.2057220145359 146.46049396447833 L 832.2398065496878 146.35378878501362 L 832.2762497891958 146.24724301897078 L 832.3150480887666 146.1408673208376 L 832.3561975686023 146.03467232809527 L 832.3996941137893 145.92866866015453 L 832.4455333747094 145.8228669172939 L 832.4937107674746 145.71727767959945 L 832.5442214743858 145.611911505907 L 832.5970604444144 145.50677893274604 L 832.6522223937076 145.40189047328636 L 832.7097018061162 145.29725661628646 L 832.769492933747 145.19288782504483 L 832.8315897975368 145.08879453635367 L 832.8959861878513 144.98498715945507 L 832.9626756651052 144.8814760750002 L 833.031651560406 144.77827163401128 L 833.1029069762218 144.67538415684638 L 833.1764347870704 144.5728239321675 L 833.252227640232 144.4706012159116 L 833.3302779564845 144.36872623026517 L 833.4105779308612 144.26720916264188 L 833.4931195334316 144.16606016466383 L 833.5778945101043 144.0652893511466 L 833.6648943834523 143.96490679908752 L 833.7541104535607 143.86492254665816 L 833.8455337988968 143.76534659220047 L 833.9391552772023 143.66618889322686 L 834.0349655264073 143.56745936542464 L 834.1329549655669 143.4691678816643 L 834.2331137958188 143.37132427101233 L 834.3354320013633 143.27393831774822 L 834.4398993504651 143.17701976038614 L 834.5465053964766 143.0805782907011 L 834.6552394788819 142.9846235527597 L 834.7660907243632 142.88916514195574 L 834.8790480478885 142.79421260405076 L 834.9941001538197 142.69977543421942 L 835.1112355370418 142.60586307610004 L 835.2304424841142 142.5124849208501 L 835.3517090744416 142.41965030620742 L 835.475023181466 142.327368515556 L 835.6003724738795 142.23564877699806 L 835.7277444168571 142.144500262431 L 835.857126273311 142.0539320866303 L 835.9885051051631 141.96395330633814 L 836.1218677746397 141.8745729193575 L 836.257200945585 141.7857998636526 L 836.3944910847949 141.6976430164551 L 836.5337244633697 141.61011119337616 L 836.6748871580876 141.52321314752518 L 836.8179650527967 141.43695756863437 L 836.9629438398268 141.3513530821897 L 837.1098090214201 141.26640824856847 L 837.2585459111808 141.1821315621833 L 837.4091396355437 141.09853145063252 L 837.5615751352622 141.01561627385772 L 837.7158371669129 140.9333943233074 L 837.8719103044216 140.85187382110814 L 838.0297789406044 140.7710629192422 L 838.1894272887293 140.69096969873246 L 838.3508393840945 140.6116021688342 L 838.513999085625 140.53296826623426 L 838.6788900774865 140.45507585425742 L 838.8454958707174 140.3779327220799 L 839.0137998048772 140.30154658395068 L 839.1837850497125 140.2259250784199 L 839.3554346068407 140.1510757675751 L 839.5287313114492 140.077006136285 L 839.7036578340117 140.00372359145098 L 839.8801966820218 139.93123546126648 L 840.0583302017419 139.8595489944841 L 840.2380405799685 139.7886713596908 L 840.4193098458134 139.71860964459094 L 840.602119872501 139.6493708552977 L 840.7864523791812 139.5809619156323 L 840.972288932757 139.51338966643166 L 841.1596109497276 139.44666086486444 L 841.3483996980475 139.38078218375517 L 841.5386362989993 139.3157602109171 L 841.7303017290815 139.25160144849323 L 841.9233768219106 139.18831231230644 L 842.1178422701382 139.12589913121755 L 842.3136786273818 139.06436814649268 L 842.5108663101686 139.00372551117903 L 842.7093855998949 138.94397728948957 L 842.9092166447969 138.88512945619672 L 843.1103394619366 138.82718789603473 L 843.3127339392003 138.77015840311134 L 843.5163798373086 138.71404668032835 L 843.7212567918414 138.65885833881123 L 843.927344315274 138.60459889734818 L 844.1346217990259 138.55127378183812 L 844.3430685155214 138.49888832474815 L 844.5526636202626 138.44744776458035 L 844.7633861539135 138.39695724534783 L 844.9752150443966 138.3474218160605 L 845.1881291089992 138.29884643021995 L 845.4021070564924 138.2512359453243 L 845.6171274892596 138.2045951223824 L 845.8331689054368 138.1589286254376 L 846.0502097010623 138.1142410211016 L 846.2682281722376 138.07053677809762 L 846.4872025172972 138.02782026681345 L 846.7071108389889 137.9860957588647 L 846.9279311466642 137.94536742666736 L 847.1496413584758 137.90563934302074 L 847.3722193035877 137.86691548070004 L 847.5956427243907 137.82919971205928 L 847.8198892787289 137.79249580864388 L 848.0449365421338 137.75680744081356 L 848.2707620100665 137.7221381773754 L 848.4973431001686 137.68849148522685 L 848.7246571545197 137.65587072900905 L 848.9526814419038 137.6242791707705 L 849.1813931600823 137.59371996964066 L 849.4107694380739 137.56419618151418 L 849.640787338442 137.53571075874527 L 849.8714238595882 137.50826654985244 L 850.1026559380525 137.4818662992338 L 850.3344604508198 137.4565126468923 L 850.5668142176322 137.4322081281721 L 850.7996940033064 137.4089551735048 L 851.033076520058 137.38675610816654 L 851.2669384298298 137.3656131520453 L 851.5012563466256 137.3455284194191 L 851.7360068388491 137.3265039187445 L 851.9711664316467 137.3085415524556 L 852.2067116092551 137.29164311677417 L 852.4426188173527 137.27581030152965 L 852.6788644654155 137.26104468999037 L 852.9154249290752 137.24734775870522 L 853.152276552483 137.23472087735584 L 853.3893956506737 137.2231653086199 L 853.6267585119351 137.21268220804464 L 853.8643414001789 137.20327262393135 L 854.1021205573142 137.19493749723065 L 854.3400722056235 137.18767766144822 L 854.5781725501403 137.1814938425616 L 854.8163977810284 137.1763866589475 L 855.0547240759635 137.1723566213201 L 855.2931276025145 137.16940413267974 L 855.5315845205273 137.16752948827283 L 855.7700709845092 137.16673287556227 L 856.0085631460122 137.16701437420866 L 856.247037156019 137.16837395606237 L 856.4854691673274 137.17081148516635 L 856.7238353369349 137.1743267177697 L 856.9621118284232 137.1789193023521 L 857.2002748143417 137.18458877965895 L 857.4383004785902 137.1913345827472 L 857.6761650188007 137.1991560370422 L 857.9138446487174 137.208052360405 L 858.1513156005755 137.2180226632107 L 858.3885541274774 137.22906594843732 L 858.6255365057683 137.24118111176554 L 858.8622390374079 137.25436694168914 L 859.0986380523402 137.2686221196361 L 859.3347099108609 137.2839452201005 L 859.5704310059805 137.30033471078508 L 859.8057777657862 137.3177889527544 L 860.040726655798 137.33630620059884 L 860.2752541813228 137.35588460260905 L 860.5093368898035 137.37652220096112 L 860.7429513731643 137.3982169319124 L 860.9760742701513 137.42096662600792 L 861.2086822686695 137.4447690082972 L 861.4407521081125 137.46962169856184 L 861.67226058169 137.49552221155355 L 861.9031845387475 137.52246795724258 L 862.1335008870817 137.55045624107683 L 862.3631865952497 137.57948426425128 L 862.592218694872 137.60954912398773 L 862.8205742829297 137.64064781382532 L 863.0482305240541 137.67277722392095 L 863.2751646528109 137.7059341413604 L 863.5013539759763 137.74011525047953 L 863.7267758748065 137.77531713319595 L 863.9514078072995 137.8115362693507 L 864.1752273104491 137.84876903706035 L 864.3982120024917 137.88701171307918 L 864.6203395851437 137.92626047317142 L 864.8415878458322 137.9665113924938 L 865.0619346599153 138.00776044598788 L 865.2813579928952 138.05000350878274 L 865.4998359026216 138.0932363566073 L 865.7173465414855 138.13745466621276 L 865.9338681586044 138.18265401580504 L 866.1493791019967 138.22882988548685 L 866.363857820748 138.2759776577097 L 866.577282867165 138.32409261773563 L 866.7896328989209 138.37316995410876 L 867.0008866811896 138.42320475913633 L 867.2110230887688 138.47419202937957 L 867.4200211081928 138.5261266661539 L 867.6278598398341 138.57900347603896 L 867.8345184999923 138.63281717139782 L 868.0399764229741 138.68756237090574 L 868.244213063158 138.74323360008844 L 868.4472079970503 138.7998252918694 L 868.6489409253269 138.85733178712658 L 868.849391674863 138.91574733525837 L 869.0485402007506 138.97506609475863 L 869.2463665883032 139.03528213380088 L 869.4428510550468 139.09638943083135 L 869.6379739526986 139.1583818751713 L 869.8317157691314 139.22125326762796 L 870.0240571303248 139.28499732111442 L 870.2149788023032 139.3496076612785 L 870.4044616930584 139.41507782714 L 870.5924868544593 139.48140127173693 L 870.7790354841463 139.54857136278005 L 870.964088927412 139.61658138331626 L 871.1476286790663 139.6854245324002 L 871.329636385287 139.75509392577428 L 871.5100938454551 139.82558259655724 L 871.688983013975 139.89688349594076 L 871.8662860020787 139.9689894938943 L 872.0419850796155 140.04189337987816 L 872.2160626768239 140.1155878635645 L 872.3885013860892 140.19006557556636 L 872.5592839636842 140.26531906817462 L 872.7283933314934 140.3413408161027 L 872.895812578721 140.41812321723916 L 873.0615249635819 140.4956585934079 L 873.2255139149755 140.57393919113588 L 873.3877630341435 140.6529571824286 L 873.5482560963092 140.73270466555275 L 873.7069770523 140.81317366582647 L 873.8639100301525 140.8943561364168 L 874.0190393366998 140.97624395914434 L 874.1723494591407 141.05882894529506 L 874.3238250665904 141.14210283643916 L 874.4734510116145 141.22605730525692 L 874.6212123317433 141.3106839563714 L 874.7670942509678 141.39597432718804 L 874.9110821812177 141.4819198887408 L 875.0531617238199 141.56851204654518 L 875.1933186709387 141.65574214145755 L 875.3315390069959 141.74360145054112 L 875.4678089100732 141.83208118793817 L 875.602114753294 141.9211725057487 L 875.7344431061858 142.01086649491518 L 875.8647807360235 142.10115418611346 L 875.9931146091528 142.19202655064962 L 876.1194318922935 142.28347450136295 L 876.2437199538222 142.37548889353457 L 876.3659663650366 142.46806052580197 L 876.4861589013973 142.56118014107906 L 876.604285543751 142.65483842748188 L 876.7203344795316 142.74902601925987 L 876.8342941039425 142.84373349773236 L 876.9461530211162 142.93895139223036 L 877.055900045254 143.03467018104382 L 877.1635242017452 143.13088029237363 L 877.2690147282636 143.2275721052888 L 877.3723610758447 143.32473595068862 L 877.4735529099396 143.42236211226952 L 877.5725801114495 143.5204408274967 L 877.6694327777365 143.6189622885804 L 877.7641012236148 143.7179166434566 L 877.8565759823188 143.81729399677224 L 877.9468478064496 143.9170844108748 L 878.0349076688999 144.01727790680607 L 878.120746763757 144.11786446529993 L 878.204356507183 144.21883402778434 L 878.2857285382729 144.32017649738722 L 878.3648547198918 144.42188173994606 L 878.4417271394873 144.52393958502134 L 878.5163381098814 144.62633982691358 L 878.5886801700394 144.72907222568398 L 878.6587460858157 144.83212650817825 L 878.7265288506767 144.93549236905397 L 878.7920216864027 145.03915947181127 L 878.8552180437646 145.14311744982624 L 878.9161116031793 145.24735590738766 L 878.9746962753417 145.3518644207367 L 879.0309662018333 145.45663253910908 L 879.0849157557085 145.56164978578028 L 879.1365395420568 145.66690565911313 L 879.1858323985424 145.77238963360804 L 879.232789395921 145.87809116095545 L 879.2774058385319 145.98399967109071 L 879.319677264768 146.09010457325107 L 879.3595994475218 146.1963952570347 L 879.3971683946085 146.30286109346187 L 879.4323803491644 146.40949143603757 L 879.4652317900238 146.51627562181648 L 879.4957194320697 146.62320297246893 L 879.5238402265634 146.73026279534903 L 879.5495913614487 146.83744438456367 L 879.5729702616339 146.94473702204326 L 879.5939745892482 147.05212997861346 L 879.6126022438765 147.15961251506812 L 879.6288513627687 147.26717388324312 L 879.6427203210267 147.3748033270913 L 879.654207731766 147.48249008375802 L 879.6633124462551 147.59022338465726 L 879.6700335540303 147.69799245654877 L 879.6743703829862 147.80578652261516 L 879.6763224994438 147.9135948035396 M 879.6764434894998 182.2518632181 L 879.6752510295961 182.35967376301662 L 879.67167376913 182.4674735269686 L 879.6657120658248 182.57525173006934 L 879.6573665158454 182.68299759458841 L 879.6466379537402 182.79070034602907 L 879.6335274523564 182.898349214206 L 879.6180363227331 183.00593343432203 L 879.6001661139705 183.11344224804486 L 879.5799186130745 183.22086490458264 L 879.5572958447783 183.3281906617593 L 879.5323000713399 183.4354087870885 L 879.5049337923159 183.54250855884712 L 879.4751997443113 183.64947926714717 L 879.4431009007062 183.756310215007 L 879.4086404713581 183.86299071942085 L 879.3718219022813 183.96951011242717 L 879.332648875302 184.07585774217543 L 879.2911253076902 184.18202297399125 L 879.2472553517682 184.28799519143996 L 879.2010433944948 184.3937637973881 L 879.1524940570275 184.49931821506323 L 879.1016121942595 184.60464788911153 L 879.0484028943346 184.70974228665338 L 878.9928714781383 184.81459089833658 L 878.9350234987663 184.9191832393874 L 878.8748647409682 185.0235088506588 L 878.8124012205695 185.12755729967668 L 878.7476391838703 185.23131818168278 L 878.6805851070203 185.33478112067542 L 878.6112456953714 185.43793577044687 L 878.5396278828067 185.54077181561814 L 878.465738831048 185.6432789726704 L 878.389585928939 185.7454469909734 L 878.3111767917062 185.84726565381038 L 878.2305192601981 185.94872477939998 L 878.1476214001007 186.04981422191415 L 878.0624915011308 186.15052387249287 L 877.9751380762074 186.25084366025504 L 877.8855698606002 186.35076355330548 L 877.7937958110562 186.45027355973812 L 877.6998251049038 186.54936372863529 L 877.6036671391352 186.6480241510626 L 877.5053315294671 186.74624496106009 L 877.4048281093783 186.84401633662858 L 877.3021669291271 186.94132850071202 L 877.1973582547461 187.03817172217506 L 877.0904125670152 187.13453631677626 L 876.9813405604142 187.2304126481365 L 876.8701531420529 187.3257911287025 L 876.7568614305803 187.42066222070568 L 876.6414767550734 187.51501643711595 L 876.5240106539034 187.60884434259026 L 876.4044748735824 187.70213655441623 L 876.2828813675892 187.79488374345047 L 876.1592422951728 187.88707663505133 L 876.0335700201374 187.9787060100065 L 875.905877109606 188.06976270545482 L 875.7761763327629 188.16023761580266 L 875.644480659578 188.25012169363436 L 875.5108032595087 188.33940595061702 L 875.3751575001838 188.42808145839936 L 875.237556946066 188.5161393495045 L 875.0980153570961 188.60357081821672 L 874.9565466873167 188.69036712146203 L 874.813165083477 188.77651957968237 L 874.6678848836178 188.86201957770376 L 874.520720615638 188.94685856559764 L 874.3716869958419 189.03102805953588 L 874.220798927467 189.1145196426393 L 874.0680714991946 189.19732496581912 L 873.9135199836403 189.27943574861203 L 873.7571598358269 189.36084378000817 L 873.5990066916386 189.44154091927226 L 873.4390763662583 189.5215190967576 L 873.2773848525851 189.60077031471312 L 873.1139483196358 189.67928664808304 L 872.9487831109273 189.75706024529944 L 872.7819057428429 189.83408332906745 L 872.6133329029805 189.91034819714287 L 872.4430814484833 189.9858472231024 L 872.2711684043552 190.06057285710642 L 872.0976109617571 190.13451762665377 L 871.9224264762888 190.20767413732912 L 871.7456324662528 190.2800350735424 L 871.5672466109028 190.3515931992602 L 871.3872867486755 190.42234135872968 L 871.2057708754074 190.49227247719378 L 871.0227171425345 190.56137956159898 L 870.8381438552775 190.62965570129438 L 870.6520694708113 190.69709406872295 L 870.4645125964194 190.7636879201041 L 870.2754919876327 190.82943059610824 L 870.0850265463548 190.89431552252253 L 869.893135318971 190.95833621090839 L 869.6998374944442 191.0214862592503 L 869.5051524023957 191.08375935259613 L 869.3090995111725 191.1451492636884 L 869.1116984259003 191.20564985358718 L 868.9129688865232 191.26525507228382 L 868.7129307658295 191.32395895930622 L 868.5116040674645 191.38175564431452 L 868.3090089239305 191.43863934768845 L 868.1051655945727 191.49460438110503 L 867.9000944635544 191.54964514810757 L 867.6938160378177 191.60375614466523 L 867.4863509450333 191.65693195972344 L 867.2777199315376 191.70916727574505 L 867.0679438602582 191.76045686924192 L 866.8570437086272 191.8107956112975 L 866.6450405664841 191.8601784680795 L 866.4319556339665 191.90860050134341 L 866.2178102193901 191.95605686892625 L 866.0026257371178 192.00254282523082 L 865.7864237054185 192.0480537217002 L 865.5692257443154 192.09258500728268 L 865.3510535734234 192.13613222888682 L 865.1319290097779 192.17869103182676 L 864.9118739656525 192.22025716025763 L 864.6909104463684 192.26082645760127 L 864.4690605480935 192.30039486696174 L 864.2463464556324 192.33895843153107 L 864.022790440209 192.37651329498493 L 863.7984148572385 192.4130557018683 L 863.5732421440922 192.4485819979709 L 863.3472948178538 192.48308863069278 L 863.1205954730676 192.51657214939937 L 862.8931667794792 192.54902920576671 L 862.6650314797683 192.58045655411627 L 862.4362123872751 192.61085105173933 L 862.2067323837177 192.6402096592115 L 861.9766144169057 192.6685294406965 L 861.7458814984436 192.69580756423974 L 861.5145567014313 192.72204130205162 L 861.2826631581554 192.74722803078024 L 861.0502240577773 192.7713652317737 L 860.8172626440132 192.79445049133201 L 860.5838022128103 192.81648150094847 L 860.3498661100173 192.83745605754044 L 860.1154777290493 192.85737206366977 L 859.8806605085493 192.87622752775246 L 859.6454379300437 192.89402056425777 L 859.4098335155941 192.9107493938969 L 859.1738708254458 192.92641234380085 L 858.9375734556711 192.94100784768764 L 858.7009650358101 192.95453444601907 L 858.4640692265075 192.96699078614654 L 858.226909717147 192.9783756224465 L 857.9895102234818 192.98868781644472 L 857.7518944852634 192.99792633693042 L 857.5140862638677 193.0060902600593 L 857.2761093399187 193.01317876944577 L 857.0379875109103 193.01919115624486 L 856.7997445888271 193.02412681922286 L 856.5614043977628 193.02798526481763 L 856.3229907715378 193.0307661071878 L 856.084527551316 193.03246906825143 L 855.8460385832209 193.03309397771386 L 855.6075477159503 193.03264077308467 L 855.3690787983925 193.0311094996839 L 855.1306556772403 193.02850031063767 L 854.8923021946073 193.0248134668627 L 854.6540421856429 193.02004933704026 L 854.4158994761497 193.0142083975794 L 854.1778978802 193.00729123256917 L 853.9400611977552 192.99929853372032 L 853.7024132122853 192.99023110029609 L 853.4649776883907 192.98008983903225 L 853.227778369426 192.96887576404646 L 852.9908389751256 192.9565899967369 L 852.7541831992313 192.94323376567004 L 852.5178347071235 192.92880840645788 L 852.2818171334544 192.9133153616243 L 852.0461540797849 192.8967561804609 L 851.8108691122237 192.87913251887196 L 851.5759857590717 192.860446139209 L 851.3415275084684 192.84069891009435 L 851.1075178060436 192.8198928062345 L 850.8739800525722 192.7980299082225 L 850.6409376016353 192.77511240232997 L 850.4084137572836 192.75114258028833 L 850.1764317717077 192.72612283905983 L 849.9450148429131 192.70005568059779 L 849.7141861123996 192.67294371159628 L 849.483968662848 192.64478964322961 L 849.2543855158115 192.61559629088117 L 849.0254596294131 192.5853665738619 L 848.7972138960512 192.55410351511824 L 848.5696711401085 192.52181024093008 L 848.3428541156712 192.4884899805979 L 848.1167855042528 192.45414606611993 L 847.8914879125258 192.41878193185906 L 847.6669838700617 192.3824011141992 L 847.4432958270778 192.34500725119184 L 847.2204461521919 192.30660408219208 L 846.9984571301858 192.26719544748485 L 846.7773509597768 192.22678528790075 L 846.5571497513973 192.1853776444221 L 846.3378755249852 192.1429766577787 L 846.11955020778 192.09958656803389 L 845.9021956321316 192.0552117141605 L 845.6858335333166 192.00985653360692 L 845.4704855473642 191.96352556185343 L 845.256173208894 191.9162234319586 L 845.0429179489608 191.867954874096 L 844.8307410929134 191.81872471508117 L 844.6196638582601 191.768537877889 L 844.4097073525487 191.7173993811614 L 844.2008925712548 191.6653143387054 L 843.9932403956825 191.61228795898188 L 843.7867715908764 191.55832554458456 L 843.5815068035447 191.50343249171 L 843.3774665599952 191.44761428961766 L 843.1746712640822 191.39087652008126 L 842.9731411951665 191.3332248568305 L 842.7728965060868 191.27466506498365 L 842.5739572211452 191.21520300047106 L 842.3763432341044 191.1548446094497 L 842.1800743061985 191.0935959277083 L 841.9851700641567 191.03146308006401 L 841.7916499982408 190.96845227974987 L 841.599533460296 190.90456982779335 L 841.4088396618163 190.83982211238643 L 841.2195876720223 190.7742156082467 L 841.0317964159553 190.70775687596986 L 840.8454846725847 190.64045256137382 L 840.6606710729293 190.5723093948339 L 840.4773740981952 190.50333419061 L 840.295612077927 190.43353384616503 L 840.1154031881755 190.36291534147531 L 839.9367654496792 190.29148573833243 L 839.7597167260633 190.2192521796372 L 839.5842747220524 190.1462218886853 L 839.410456981701 190.0724021684449 L 839.2382808866381 189.9978004008266 L 839.0677636543297 189.92242404594495 L 838.8989223363571 189.84628064137263 L 838.7317738167112 189.76937780138664 L 838.5663348101049 189.69172321620687 L 838.4026218603007 189.61332465122717 L 838.2406513384574 189.5341899462387 L 838.0804394414921 189.454327014646 L 837.922002190461 189.37374384267568 L 837.7653554289572 189.29244848857778 L 837.6105148215263 189.21044908181995 L 837.4574958521 189.12775382227457 L 837.3063138224477 189.04437097939865 L 837.1569838506464 188.960308891407 L 837.0095208695689 188.87557596443838 L 836.8639396253903 188.7901806717149 L 836.7202546761139 188.7041315526946 L 836.5784803901147 188.6174372122177 L 836.4386309447033 188.53010631964605 L 836.3007203247075 188.44214760799608 L 836.1647623210745 188.35356987306568 L 836.0307705294914 188.26438197255453 L 835.8987583490257 188.17459282517834 L 835.7687389807853 188.08421140977703 L 835.6407254265988 187.99324676441682 L 835.5147304877149 187.90170798548647 L 835.3907667635226 187.80960422678757 L 835.2688466502909 187.71694469861922 L 835.1489823399295 187.62373866685704 L 835.0311858187696 187.52999545202653 L 834.9154688663651 187.43572442837106 L 834.8018430543149 187.34093502291444 L 834.6903197451055 187.2456367145182 L 834.5809100909748 187.1498390329338 L 834.4736250327971 187.05355155784954 L 834.3684752989889 186.9567839179327 L 834.2654714044359 186.85954578986664 L 834.1646236494415 186.76184689738312 L 834.0659421186974 186.66369701028998 L 833.9694366802745 186.56510594349413 L 833.8751169846361 186.46608355602012 L 833.782992463673 186.36663975002412 L 833.6930723297609 186.26678446980392 L 833.605365574838 186.1665277008043 L 833.5198809695066 186.06587946861862 L 833.4366270621564 185.96484983798624 L 833.3556121781083 185.863448911786 L 833.2768444187835 185.76168683002604 L 833.2003316608923 185.65957376882972 L 833.1260815556465 185.5571199394181 L 833.0541015279949 185.4543355870887 L 832.9843987758802 185.3512309901911 L 832.9169802695197 185.24781645909914 L 832.8518527507077 185.14410233517967 L 832.7890227321418 185.0400989897587 L 832.7284964967716 184.93581682308405 L 832.6702800971701 184.83126626328556 L 832.6143793549289 184.72645776533201 L 832.5607998600755 184.6214018099859 L 832.5095469705146 184.51610890275524 L 832.4606258114928 184.41058957284298 L 832.414041275085 184.30485437209416 L 832.3697980197061 184.19891387394074 L 832.3279004696446 184.0927786723443 L 832.2883528146209 183.98645938073653 L 832.2511590093673 183.87996663095797 L 832.2163227732334 183.7733110721949 L 832.1838475898137 183.66650336991427 L 832.1537367065997 183.5595542047973 L 832.1259931346544 183.45247427167143 L 832.1006196483121 183.3452742784407 L 832.0776187849001 183.2379649450151 L 832.0569928444856 183.1305570022386 L 832.0387438896455 183.02306119081587 L 832.0228737452601 182.91548826023856 L 832.0093839983306 182.80784896771007 L 831.9982759978203 182.7001540770699 L 831.9895508545203 182.59241435771744 L 831.9832094409373 182.4846405835348 L 831.9792523912078 182.37684353180958 L 831.977680101033 182.26903398215717" stroke-miterlimit="10" stroke-width="2.7769845610000004" stroke-dasharray=""/></g><g><g/><text fill="black" stroke="none" font-family="sans-serif" font-size="11pt" font-style="normal" font-weight="normal" text-decoration="normal" x="801.8270466714998" y="210.560770537" text-anchor="start" dominant-baseline="alphabetic">Distribution View</text></g></g><g><path fill="white" stroke="black" paint-order="fill stroke markers" d=" M 847.6594450214998 393.515047497 L 863.9946483214999 393.515047497 L 863.9946483214999 434.353055747 L 847.6594450214998 434.353055747 L 847.6594450214998 393.515047497" stroke-miterlimit="10" stroke-width="1.3612669416666667" stroke-dasharray=""/><g><g/><g/><path fill="none" stroke="black" paint-order="fill stroke markers" d=" M 8.16760165 8.16760165 L 983.1678598715 8.16760165 L 983.1678598715 571.568763467 L 8.16760165 571.568763467 L 8.16760165 8.16760165 Z" stroke-miterlimit="10" stroke-width="1.3612669416666667" stroke-dasharray=""/><path fill="white" stroke="black" paint-order="fill stroke markers" d=" M 8.16760165 8.16760165 L 8.16760165 31.036886269999997 L 290.83800825000003 31.036886269999997 L 302.27265056000005 19.60224396 L 302.27265056000005 8.16760165 L 8.16760165 8.16760165" stroke-miterlimit="10" stroke-width="1.3612669416666667" stroke-dasharray=""/><text fill="black" stroke="none" font-family="sans-serif" font-size="11pt" font-style="normal" font-weight="bold" text-decoration="normal" x="24.502804949999998" y="23.686044784999996" text-anchor="start" dominant-baseline="alphabetic">sd</text><text fill="black" stroke="none" font-family="sans-serif" font-size="11pt" font-style="normal" font-weight="normal" text-decoration="normal" x="45.50280495" y="23.686044784999996" text-anchor="start" dominant-baseline="alphabetic">PublishFileInfo_StandardProcedure</text></g><g><text fill="black" stroke="none" font-family="sans-serif" font-size="11pt" font-style="normal" font-weight="normal" text-decoration="normal" x="157.92114384241665" y="262.833421097" text-anchor="start" dominant-baseline="alphabetic">PUBLISH files/info</text><text fill="black" stroke="none" font-family="sans-serif" font-size="11pt" font-style="normal" font-weight="normal" text-decoration="normal" x="157.92114384241665" y="279.168624397" text-anchor="start" dominant-baseline="alphabetic">(FileInfoPublished Event)</text></g><g><path fill="none" stroke="black" paint-order="fill stroke markers" d=" M 101.1952241605 285.702705717 L 372.924529641 285.702705717" stroke-miterlimit="10" stroke-width="1.3612669416666667" stroke-dasharray=""/><g transform="translate(375.6470635243333,285.702705717) translate(-375.6470635243333,-285.702705717)"><path fill="none" stroke="black" paint-order="fill stroke markers" d=" M 362.0343941076666 278.8963710086667 L 374.28579658266665 285.702705717 L 362.0343941076666 292.50904042533335" stroke-miterlimit="10" stroke-width="1.3612669416666667"/></g></g><g><text fill="black" stroke="none" font-family="sans-serif" font-size="11pt" font-style="normal" font-weight="normal" text-decoration="normal" x="432.37298320624996" y="324.907193637" text-anchor="start" dominant-baseline="alphabetic">PUBLISH files/info</text><text fill="black" stroke="none" font-family="sans-serif" font-size="11pt" font-style="normal" font-weight="normal" text-decoration="normal" x="432.37298320624996" y="341.24239693699997" text-anchor="start" dominant-baseline="alphabetic">(FileInfoPublished Event)</text></g><g><path fill="none" stroke="black" paint-order="fill stroke markers" d=" M 375.6470635243333 347.776478257 L 647.3763690048332 347.776478257" stroke-miterlimit="10" stroke-width="1.3612669416666667" stroke-dasharray=""/><g transform="translate(650.0989028881665,347.776478257) translate(-650.0989028881665,-347.776478257)"><path fill="none" stroke="black" paint-order="fill stroke markers" d=" M 636.4862334714999 340.97014354866667 L 648.7376359464998 347.776478257 L 636.4862334714999 354.58281296533335" stroke-miterlimit="10" stroke-width="1.3612669416666667"/></g></g><g><text fill="black" stroke="none" font-family="sans-serif" font-size="11pt" font-style="normal" font-weight="normal" text-decoration="normal" x="671.8791739548332" y="386.98096617699997" text-anchor="start" dominant-baseline="alphabetic">store published </text><text fill="black" stroke="none" font-family="sans-serif" font-size="11pt" font-style="italic" font-weight="normal" text-decoration="normal" x="774.8791739548332" y="386.98096617699997" text-anchor="start" dominant-baseline="alphabetic">File Info</text></g><g><path fill="none" stroke="black" paint-order="fill stroke markers" d=" M 650.0989028881665 393.515047497 L 844.9369111381665 393.515047497" stroke-miterlimit="10" stroke-width="1.3612669416666667" stroke-dasharray=""/><g transform="translate(847.6594450214998,393.515047497) translate(-847.6594450214998,-393.515047497)"><path fill="none" stroke="black" paint-order="fill stroke markers" d=" M 834.0467756048331 386.7087127886667 L 846.2981780798331 393.515047497 L 834.0467756048331 400.32138220533335" stroke-miterlimit="10" stroke-width="1.3612669416666667"/></g></g><path fill="white" stroke="black" paint-order="fill stroke markers" d=" M 770.9577620514999 458.85586069699997 L 925.9946483215 458.85586069699997 L 940.6963312915 473.55754366699995 L 940.6963312915 496.426828287 L 770.9577620514999 496.426828287 L 770.9577620514999 458.85586069699997 M 925.9946483215 458.85586069699997 L 925.9946483215 473.55754366699995 L 940.6963312915 473.55754366699995" stroke-miterlimit="10" stroke-width="1.3612669416666667" stroke-dasharray=""/><g><text fill="black" stroke="none" font-family="sans-serif" font-size="11pt" font-style="normal" font-weight="normal" text-decoration="normal" x="793.8270466714998" y="481.72514531699994" text-anchor="start" dominant-baseline="alphabetic">FileInfo was saved.</text></g></g><g/></g></svg>